<?xml version="1.0" encoding="utf-8"?>
<!-- Generator: Adobe Illustrator 27.5.0, SVG Export Plug-In . SVG Version: 6.00 Build 0)  -->
<svg version="1.1" xmlns="http://www.w3.org/2000/svg" xmlns:xlink="http://www.w3.org/1999/xlink" x="0px" y="0px"
	 viewBox="0 0 500 500" style="enable-background:new 0 0 500 500;" xml:space="preserve">
<g id="Floor">
	<ellipse id="Floor_2_" style="fill:#F5F5F5;" cx="250.555" cy="365.116" rx="240.314" ry="124.365"/>
</g>
<g id="Clouds">
	<g id="Clouds_1_">
		<path id="XMLID_149_" style="fill:#EBEBEB;" d="M106.077,45.134l-9.178,5.299c0.046-0.41,0.077-0.817,0.077-1.215v-2.659
			c0-4.731-3.322-6.649-7.42-4.284c-1.659,0.958-3.186,2.476-4.422,4.252c-0.671-5.949-5.339-8.166-11.008-4.893
			c-6.13,3.539-11.1,12.147-11.1,19.226v3.978c0,1.833,0.339,3.378,0.94,4.608l-7.623,4.401c-2.273,1.312-4.116,4.504-4.116,7.128
			c0,2.625,1.843,3.688,4.116,2.376l49.733-28.714c2.273-1.312,4.116-4.504,4.116-7.128
			C110.192,44.886,108.35,43.822,106.077,45.134z"/>
		<path id="XMLID_147_" style="fill:#EBEBEB;" d="M150.24,65.017l-6.926,3.999c0.034-0.309,0.058-0.616,0.058-0.917v-2.007
			c0-3.571-2.507-5.018-5.599-3.233c-1.252,0.723-2.405,1.869-3.337,3.209c-0.507-4.49-4.029-6.163-8.308-3.692
			c-4.626,2.671-8.377,9.167-8.377,14.51v3.002c0,1.384,0.256,2.549,0.709,3.478l-5.753,3.322c-1.715,0.991-3.106,3.399-3.106,5.38
			c0,1.981,1.391,2.784,3.106,1.793l37.534-21.67c1.715-0.99,3.106-3.399,3.106-5.38C153.346,64.829,151.956,64.027,150.24,65.017z"
			/>
	</g>
</g>
<g id="Shadows">
	<path id="Shadow_25_" style="fill:#E0E0E0;" d="M363.257,383.55c-19.247,11.112-19.247,29.129,0.001,40.243
		c19.248,11.112,50.455,11.112,69.702,0c19.248-11.113,19.248-29.13-0.001-40.243C413.711,372.437,382.504,372.437,363.257,383.55z"
		/>
	<path id="Shadow_27_" style="fill:#E0E0E0;" d="M79.49,431.39l-43.745-25.256c-2.466-1.424-2.466-3.733,0-5.157L280.51,259.833
		c2.466-1.424,6.465-1.424,8.931,0l43.746,25.255c2.466,1.424,2.466,3.733,0,5.156L88.421,431.39
		C85.955,432.814,81.956,432.814,79.49,431.39z"/>
	<path id="Shadow_28_" style="fill:#E0E0E0;" d="M314.393,341.39l-5.443-3.143c-12.35-7.131-31.846-7.48-43.461-0.774
		l-20.311,11.727c-0.718,0.414-0.963,1.331-0.549,2.049c0.414,0.719,1.333,0.964,2.049,0.549l20.311-11.727
		c10.784-6.226,28.937-5.88,40.461,0.774l5.443,3.143c5.3,3.061,8.219,7.038,8.219,11.202c0,4.163-2.919,8.141-8.219,11.2
		l-74.497,43.012c-11.524,6.654-30.277,6.652-41.802,0l-21.691-12.524c-12.352-7.131-32.45-7.131-44.802,0l-5.443,3.143
		c-6.53,3.77-10.126,8.785-10.126,14.122c0,4.92,3.12,9.431,8.785,12.701l19.427,11.216l-7.983,4.707
		c-3.647,2.151-3.631,5.643,0.036,7.76l14.591,8.424c0.596,0.344,0.594,0.904-0.003,1.245l-1.218,0.695
		c-0.597,0.341-0.598,0.901-0.003,1.245l1.897,1.095c0.595,0.344,1.57,0.345,2.166,0.002l6.621-3.806
		c0.596-0.343,1.571-0.342,2.166,0.002l12.052,6.958c0.596,0.344,1.57,0.344,2.165,0l1.897-1.095c0.595-0.344,0.595-0.906,0-1.25
		l-12.052-6.958c-0.596-0.344-0.596-0.906,0-1.25l4.621-2.668c0.596-0.344,1.57-0.344,2.165,0l12.052,6.958
		c0.595,0.344,1.57,0.344,2.165,0l1.897-1.095c0.595-0.344,0.595-0.906,0-1.25l-12.053-6.959c-0.596-0.344-0.596-0.906,0-1.25
		l5.959-3.44c0.596-0.344,0.596-0.906,0-1.25l-1.897-1.095c-0.596-0.344-1.57-0.344-2.165,0l-1.897,1.095
		c-0.595,0.344-1.57,0.344-2.165,0l-18.532-10.7c-1.641-0.948-4.32-0.935-5.952,0.027l-3.69,2.176
		c-0.119-0.163-0.272-0.305-0.458-0.412l-20.31-11.727c-4.698-2.713-7.285-6.301-7.285-10.104c0-4.159,3.144-8.359,8.626-11.524
		l5.443-3.144c11.523-6.652,30.276-6.652,41.802,0l21.691,12.524c12.352,7.131,32.45,7.131,44.802,0l74.497-43.012
		c6.267-3.617,9.719-8.518,9.719-13.798C324.112,349.909,320.661,345.008,314.393,341.39z"/>
</g>
<g id="Plants">
	<g id="Plants_1_">
		<g id="XMLID_141_">
			<g id="XMLID_144_">
				<path id="XMLID_146_" style="fill:#27DEBF;" d="M416.427,402.363c-0.384-19.289,7.179-36.725,13.659-45.301
					c6.479-8.575,17.353-16.958,24.914-14.599c7.042,2.197,6.535,11.371-1.765,17.666c-8.3,6.296-20.818,14.261-24.255,24.847
					l-8.382,19.488L416.427,402.363z"/>
				<path id="XMLID_145_" style="opacity:0.15;" d="M416.427,402.363c-0.384-19.289,7.179-36.725,13.659-45.301
					c6.479-8.575,17.353-16.958,24.914-14.599c7.042,2.197,6.535,11.371-1.765,17.666c-8.3,6.296-20.818,14.261-24.255,24.847
					l-8.382,19.488L416.427,402.363z"/>
			</g>
			<g id="XMLID_142_">
				<path id="XMLID_143_" style="fill:#FFFFFF;" d="M418.729,400.516c0.205-0.022,0.379-0.178,0.415-0.391
					c1.796-10.685,5.376-23.021,11.457-32.721c6.543-10.438,16.052-16.855,21.534-19.06c0.242-0.097,0.359-0.373,0.262-0.615
					c-0.096-0.241-0.367-0.364-0.615-0.262c-5.637,2.267-15.373,8.916-22.073,19.629c-6.109,9.768-9.692,22.132-11.497,32.872
					c-0.044,0.257,0.13,0.5,0.387,0.544C418.644,400.519,418.687,400.52,418.729,400.516z"/>
			</g>
		</g>
		<g id="XMLID_136_">
			<g id="XMLID_139_">
				<path id="XMLID_140_" style="fill:#27DEBF;" d="M423.404,406.55c0.94-3.661,5.215-9.778,12.258-14.926
					c7.792-5.695,17.772-8.488,19.973-12.815c2.644-5.199-1.806-9.921-9.935-8.688c-8.129,1.233-23.359,12.954-26.493,33.989
					L423.404,406.55z"/>
			</g>
			<g id="XMLID_137_">
				<path id="XMLID_138_" style="fill:#FFFFFF;" d="M421.722,402.78c0.179-0.019,0.338-0.14,0.398-0.323
					c6.253-19.087,20.494-26.113,27.151-27.162c0.258-0.04,0.434-0.283,0.393-0.54c-0.04-0.259-0.272-0.435-0.54-0.393
					c-7.361,1.159-21.52,8.32-27.902,27.802c-0.081,0.247,0.055,0.515,0.302,0.596C421.59,402.781,421.657,402.787,421.722,402.78z"
					/>
			</g>
		</g>
	</g>
</g>
<g id="Plug_1_">
	<g id="Plug">
		<path style="fill:none;stroke:#37474F;stroke-width:3;stroke-linecap:round;stroke-linejoin:round;stroke-miterlimit:10;" d="
			M245.928,345.833c0,0,9.093-5.25,20.311-11.726c11.217-6.476,30.004-6.129,41.961,0.774l5.443,3.143
			c11.957,6.904,11.957,18.096,0,25l-74.498,43.011c-11.957,6.904-31.344,6.903-43.301,0l-21.691-12.524
			c-11.957-6.904-31.344-6.904-43.301,0l-5.444,3.143c-11.957,6.904-12.557,17.75-1.34,24.226l20.31,11.726"/>
		<g>
			<path style="fill:#37474F;" d="M131.764,437.36v1.726c0,2.761,1.939,6.119,4.33,7.5l15.982,9.227l16.246-9.382l0.004-14.069
				l-15.775-7.286c-2.507-1.158-6.478-0.977-8.869,0.403l-7.588,4.381C133.702,431.241,131.764,434.598,131.764,437.36z"/>
			<path style="fill:#455A64;" d="M152.551,425.076c-2.507-1.158-6.478-0.977-8.869,0.403l-7.588,4.381
				c-2.391,1.381-2.298,3.439,0.209,4.597l15.771,7.284l16.252-9.379L152.551,425.076z"/>
			<path style="opacity:0.1;" d="M150.541,438.355c-1.196,0.69-2.165,2.369-2.165,3.75v11.571l3.701,2.136l16.246-9.382
				l0.004-14.069l-4.114-1.9L150.541,438.355z"/>
			<g>
				<path style="fill:#37474F;" d="M169.707,429.94c-0.389-0.224-0.925-0.192-1.52,0.151l-15.98,9.226
					c-1.196,0.69-2.165,2.369-2.165,3.75v13.762c0,0.691,0.244,1.174,0.637,1.397c0.365,0.207,1.671,0.96,2.032,1.173
					c0.39,0.23,0.929,0.2,1.529-0.146l15.98-9.226c1.196-0.69,2.165-2.369,2.165-3.75v-13.762c0-0.687-0.24-1.175-0.629-1.4
					C171.389,430.904,170.073,430.151,169.707,429.94z"/>
				<path style="fill:#455A64;" d="M154.239,440.491l15.98-9.226c1.196-0.69,2.165-0.131,2.165,1.25v13.762
					c0,1.381-0.969,3.06-2.165,3.75l-15.98,9.226c-1.196,0.69-2.165,0.131-2.165-1.25l0-13.762
					C152.074,442.86,153.043,441.181,154.239,440.491z"/>
			</g>
			<g>
				<path style="fill:#27DEBF;" d="M170.791,450.887l-13.217-7.631l-1.437,0.831l-0.001,9.381l13.217,7.631
					c0.838,0.484,1.599,0.524,2.15,0.203c0.244-0.142,1.196-0.692,1.439-0.832c0.545-0.313,0.879-0.986,0.88-1.952l0.001-2.381
					C173.822,454.203,172.465,451.853,170.791,450.887z M168.362,453.397c1.122,0.647,2.031,2.223,2.031,3.518
					c0,0.208-0.031,0.388-0.075,0.555c-0.167-0.045-0.339-0.108-0.519-0.213c-1.122-0.648-2.031-2.223-2.031-3.518
					c0-0.208,0.03-0.398,0.074-0.565C168.008,453.219,168.181,453.292,168.362,453.397z"/>
				<path style="opacity:0.85;fill:#FFFFFF;" d="M170.791,450.886l-13.22-7.63l-1.43,0.83l13.21,7.63c1.68,0.97,3.03,3.32,3.03,5.25
					v2.38c0,1-0.36,1.7-0.95,2c0.02-0.01,0.05-0.03,0.07-0.04c0.25-0.15,1.2-0.7,1.44-0.84c0.55-0.31,0.88-0.98,0.88-1.95v-2.38
					C173.821,454.206,172.461,451.856,170.791,450.886z"/>
				<path style="fill:#27DEBF;" d="M173.821,456.136v2.38c0,0.97-0.33,1.64-0.88,1.95c-0.24,0.14-1.19,0.69-1.44,0.84
					c-0.02,0.01-0.04,0.02-0.06,0.03c0.58-0.3,0.94-0.99,0.94-1.99v-2.38c0-0.97-0.34-2.03-0.89-2.99l1.44-0.83
					C173.481,454.096,173.821,455.166,173.821,456.136z"/>
				<path style="opacity:0.6;fill:#FFFFFF;" d="M173.821,456.136v2.38c0,0.97-0.33,1.64-0.88,1.95c-0.24,0.14-1.19,0.69-1.44,0.84
					c-0.02,0.01-0.04,0.02-0.06,0.03c0.58-0.3,0.94-0.99,0.94-1.99v-2.38c0-0.97-0.34-2.03-0.89-2.99l1.44-0.83
					C173.481,454.096,173.821,455.166,173.821,456.136z"/>
				<path style="opacity:0.05;" d="M173.821,456.136v2.38c0,0.97-0.33,1.64-0.88,1.95c-0.24,0.14-1.19,0.69-1.44,0.84
					c-0.02,0.01-0.04,0.02-0.06,0.03c0.58-0.3,0.94-0.99,0.94-1.99v-2.38c0-0.97-0.34-2.03-0.89-2.99l1.44-0.83
					C173.481,454.096,173.821,455.166,173.821,456.136z"/>
				<path style="opacity:0.6;fill:#FFFFFF;" d="M167.771,453.736c0-0.21,0.031-0.402,0.071-0.562l0,0
					c-0.868-0.242-1.511,0.305-1.511,1.392c0,1.3,0.91,2.87,2.03,3.52c0.94,0.55,1.74,0.26,1.96-0.62c-0.17-0.04-0.34-0.1-0.52-0.21
					C168.681,456.606,167.771,455.036,167.771,453.736z"/>
				<path style="opacity:0.1;" d="M167.771,453.736c0-0.21,0.031-0.402,0.071-0.562l0,0c-0.868-0.242-1.511,0.305-1.511,1.392
					c0,1.3,0.91,2.87,2.03,3.52c0.94,0.55,1.74,0.26,1.96-0.62c-0.17-0.04-0.34-0.1-0.52-0.21
					C168.681,456.606,167.771,455.036,167.771,453.736z"/>
				<path style="opacity:0.7;fill:#FFFFFF;" d="M169.354,451.717l-13.217-7.631l-0.001,9.381l13.217,7.631
					c1.674,0.966,3.031,0.183,3.031-1.75l0.001-2.381C172.385,455.034,171.028,452.684,169.354,451.717z M168.362,458.087
					c-1.122-0.648-2.031-2.223-2.031-3.518c0-1.295,0.909-1.82,2.031-1.173c1.122,0.647,2.031,2.223,2.031,3.518
					C170.393,458.21,169.483,458.735,168.362,458.087z"/>
			</g>
			<g>
				<path style="fill:#27DEBF;" d="M181.542,444.681l-13.217-7.631l-1.437,0.831l-0.001,9.381l13.217,7.631
					c0.838,0.484,1.599,0.524,2.15,0.203c0.244-0.142,1.196-0.692,1.439-0.832c0.545-0.313,0.879-0.986,0.88-1.952l0-2.381
					C184.573,447.998,183.216,445.647,181.542,444.681z M179.113,447.191c1.122,0.648,2.031,2.223,2.031,3.518
					c0,0.208-0.031,0.388-0.075,0.555c-0.167-0.045-0.339-0.108-0.519-0.213c-1.122-0.648-2.031-2.223-2.031-3.518
					c0-0.208,0.03-0.398,0.074-0.565C178.76,447.013,178.933,447.086,179.113,447.191z"/>
				<path style="opacity:0.85;fill:#FFFFFF;" d="M181.542,444.68l-13.22-7.63l-1.43,0.83l13.21,7.63c1.68,0.97,3.03,3.32,3.03,5.25
					v2.38c0,1-0.36,1.7-0.95,2c0.02-0.01,0.05-0.03,0.07-0.04c0.25-0.15,1.2-0.7,1.44-0.84c0.55-0.31,0.88-0.98,0.88-1.95v-2.38
					C184.572,448,183.212,445.65,181.542,444.68z"/>
				<path style="fill:#27DEBF;" d="M184.572,449.93v2.38c0,0.97-0.33,1.64-0.88,1.95c-0.24,0.14-1.19,0.69-1.44,0.84
					c-0.02,0.01-0.04,0.02-0.06,0.03c0.58-0.3,0.94-0.99,0.94-1.99v-2.38c0-0.97-0.34-2.03-0.89-2.99l1.44-0.83
					C184.232,447.89,184.572,448.96,184.572,449.93z"/>
				<path style="opacity:0.6;fill:#FFFFFF;" d="M184.572,449.93v2.38c0,0.97-0.33,1.64-0.88,1.95c-0.24,0.14-1.19,0.69-1.44,0.84
					c-0.02,0.01-0.04,0.02-0.06,0.03c0.58-0.3,0.94-0.99,0.94-1.99v-2.38c0-0.97-0.34-2.03-0.89-2.99l1.44-0.83
					C184.232,447.89,184.572,448.96,184.572,449.93z"/>
				<path style="opacity:0.05;" d="M184.572,449.93v2.38c0,0.97-0.33,1.64-0.88,1.95c-0.24,0.14-1.19,0.69-1.44,0.84
					c-0.02,0.01-0.04,0.02-0.06,0.03c0.58-0.3,0.94-0.99,0.94-1.99v-2.38c0-0.97-0.34-2.03-0.89-2.99l1.44-0.83
					C184.232,447.89,184.572,448.96,184.572,449.93z"/>
				<path style="opacity:0.6;fill:#FFFFFF;" d="M178.522,447.53c0-0.21,0.031-0.402,0.071-0.562l0,0
					c-0.868-0.242-1.511,0.305-1.511,1.392c0,1.3,0.91,2.87,2.03,3.52c0.94,0.55,1.74,0.26,1.96-0.62c-0.17-0.04-0.34-0.1-0.52-0.21
					C179.432,450.4,178.522,448.83,178.522,447.53z"/>
				<path style="opacity:0.1;" d="M178.522,447.53c0-0.21,0.031-0.402,0.071-0.562l0,0c-0.868-0.242-1.511,0.305-1.511,1.392
					c0,1.3,0.91,2.87,2.03,3.52c0.94,0.55,1.74,0.26,1.96-0.62c-0.17-0.04-0.34-0.1-0.52-0.21
					C179.432,450.4,178.522,448.83,178.522,447.53z"/>
				<path style="opacity:0.7;fill:#FFFFFF;" d="M180.105,445.511l-13.217-7.631l-0.001,9.381l13.217,7.631
					c1.674,0.967,3.031,0.183,3.031-1.75l0-2.381C183.136,448.828,181.779,446.478,180.105,445.511z M179.113,451.881
					c-1.122-0.648-2.031-2.223-2.031-3.518c0-1.295,0.909-1.82,2.031-1.173c1.122,0.648,2.031,2.223,2.031,3.518
					C181.144,452.004,180.235,452.529,179.113,451.881z"/>
			</g>
		</g>
	</g>
</g>
<g id="Device">
	<g id="Device_1_">
		<g id="XMLID_125_">
			<g id="XMLID_134_">
				<path id="XMLID_135_" style="fill:#27DEBF;" d="M227.049,392.138l37.606-21.744c3.876-2.238,5.814-5.171,5.815-8.104
					c0-2.934,0.016-5.231,0.016-5.231l-39.018-22.001c-2.067-1.194-3.743-4.097-3.743-6.484v-46.365l-65.684,37.956l-0.003,46.365
					c0,2.387,1.676,5.29,3.743,6.484l33.191,19.125C206.726,396.614,219.296,396.613,227.049,392.138z"/>
			</g>
			<g id="XMLID_132_" style="opacity:0.6;">
				<path id="XMLID_133_" d="M227.049,392.138l37.606-21.744c3.876-2.238,5.814-5.171,5.815-8.104c0-2.934,0.016-5.231,0.016-5.231
					l-39.018-22.001c-2.067-1.194-3.743-4.097-3.743-6.484v-46.365l-65.684,37.956l-0.003,46.365c0,2.387,1.676,5.29,3.743,6.484
					l33.191,19.125C206.726,396.614,219.296,396.613,227.049,392.138z"/>
			</g>
			<path id="XMLID_131_" style="opacity:0.3;" d="M177.809,374.739v5.208l-12.038-6.938c-2.053-1.189-3.739-4.085-3.739-6.484
				v-46.36l12.514-7.219c0.259,3.177,0.54,6.462,0.799,9.661l-8.775,5.079v36.223c0,2.399,1.664,5.295,3.739,6.484L177.809,374.739z
				"/>
			<path id="XMLID_130_" style="fill:#27DEBF;" d="M166.569,363.919c0,2.387,1.676,5.29,3.743,6.484l28.655,16.506
				c7.753,4.476,20.324,4.478,28.078,0.003l37.625-21.742c7.754-4.474,7.755-11.73,0.002-16.207l-28.673-16.518
				c-2.067-1.194-3.744-4.096-3.744-6.484l-0.001-36.228l-65.686,37.955V363.919z"/>
			<path id="XMLID_129_" style="opacity:0.3;" d="M166.569,363.919c0,2.387,1.676,5.29,3.743,6.484l28.655,16.506
				c7.753,4.476,20.324,4.478,28.078,0.003l37.625-21.742c7.754-4.474,7.755-11.73,0.002-16.207l-28.673-16.518
				c-2.067-1.194-3.744-4.096-3.744-6.484l-0.001-36.228l-65.686,37.955V363.919z"/>
			<path id="XMLID_128_" style="opacity:0.5;" d="M243.623,336.853v-0.005l-7.625-4.402c-2.068-1.194-3.744-4.097-3.744-6.484
				l0-36.228l-65.686,37.955v36.23c0,2.387,1.676,5.29,3.744,6.484l7.493,4.326L243.623,336.853z"/>
			<path id="XMLID_127_" style="fill:#27DEBF;" d="M270.478,357.062c0,0,0,2.291,0,5.23c0,2.939-1.945,5.857-5.814,8.105
				l-37.612,21.732c-3.717,2.161-8.537,3.242-13.4,3.328v-5.209c4.863-0.065,9.683-1.189,13.4-3.328l37.612-21.753
				C268.533,362.941,270.478,360.002,270.478,357.062z"/>
			<path id="XMLID_126_" style="opacity:0.5;" d="M270.478,357.062c0,0,0,2.291,0,5.23c0,2.939-1.945,5.857-5.814,8.105
				l-37.612,21.732c-3.717,2.161-8.537,3.242-13.4,3.328v-5.209c4.863-0.065,9.683-1.189,13.4-3.328l37.612-21.753
				C268.533,362.941,270.478,360.002,270.478,357.062z"/>
		</g>
		<path id="XMLID_124_" style="fill:#27DEBF;" d="M61.103,408.949c2.424,1.399,6.485,1.324,9.069-0.168
			c32.293-18.644,221.736-128.016,254.023-146.657c2.584-1.492,4.678-5.12,4.678-4.104V26.717c0-6.984-1.965-10.538-4.389-11.937
			c-2.424-1.399-6.484-1.325-9.069,0.168L61.396,161.605c-2.584,1.492-4.679,5.121-4.679,8.105l-0.003,231.302
			C56.714,403.996,58.679,407.55,61.103,408.949z"/>
		<path id="XMLID_123_" style="fill:#27DEBF;" d="M70.174,408.776l254.023-146.657c2.584-1.492,4.679-5.121,4.679-4.105V26.711
			c0-6.984-2.095-8.193-4.679-6.702L70.177,166.667c-2.584,1.492-4.679,5.121-4.679,8.105l-0.003,231.302
			C65.494,409.059,67.589,410.268,70.174,408.776z"/>
		<path id="XMLID_122_" style="opacity:0.5;" d="M70.174,408.776l254.023-146.657c2.584-1.492,4.679-5.121,4.679-4.105V26.711
			c0-6.984-2.095-8.193-4.679-6.702L70.177,166.667c-2.584,1.492-4.679,5.121-4.679,8.105l-0.003,231.302
			C65.494,409.059,67.589,410.268,70.174,408.776z"/>
		<path id="XMLID_121_" style="fill:#27DEBF;" d="M69.485,414.118c-2.593,1.145-6.181,1.102-8.386-0.173
			c-2.421-1.405-4.388-4.95-4.388-7.954V391.28l8.775,5.079v14.711C65.487,413.793,67.216,415.025,69.485,414.118z"/>
		<path id="XMLID_120_" style="opacity:0.5;" d="M69.485,414.118c-2.593,1.145-6.181,1.102-8.386-0.173
			c-2.421-1.405-4.388-4.95-4.388-7.954V391.28l8.775,5.079v14.711C65.487,413.793,67.216,415.025,69.485,414.118z"/>
		<path id="XMLID_119_" style="fill:#27DEBF;" d="M65.487,396.359l0.008,14.704c0,2.984,2.095,4.194,4.679,2.702l254.023-146.657
			c2.584-1.492,4.679-5.121,4.679-8.105v-14.744L65.487,396.359z"/>
		<path id="XMLID_118_" style="opacity:0.3;" d="M65.495,396.32l0,14.743c0,2.984,2.095,4.194,4.679,2.702l254.023-146.657
			c2.584-1.492,4.679-5.121,4.679-8.105v-14.744L65.495,396.32z"/>
		<path id="XMLID_117_" style="fill:#27DEBF;" d="M74.271,377.884l0.002-200.198c0-1.791,1.257-3.968,2.807-4.863L317.283,34.142
			c1.551-0.895,2.808-0.169,2.808,1.621l0.008,200.202c0,1.791-1.257,3.968-2.807,4.863L77.079,379.505
			C75.529,380.401,74.271,379.675,74.271,377.884z"/>
		<path id="XMLID_116_" style="fill:#263238;" d="M74.271,377.884l0.002-200.198c0-1.791,1.257-3.968,2.807-4.863L317.283,34.142
			c1.551-0.895,2.808-0.169,2.808,1.621l0.008,200.202c0,1.791-1.257,3.968-2.807,4.863L77.079,379.505
			C75.529,380.401,74.271,379.675,74.271,377.884z"/>
		<path id="XMLID_115_" style="opacity:0.7;" d="M66.87,170.143c-0.843,1.47-1.361,3.134-1.383,4.625v221.591l-8.775-5.079
			l0.005-221.57c0-1.491,0.535-3.155,1.378-4.625L66.87,170.143z"/>
		<path id="XMLID_114_" style="opacity:0.3;" d="M328.827,21.942c-0.332-2.412-2.279-3.287-4.637-1.936L70.176,166.672
			c-1.284,0.741-2.446,2.003-3.309,3.475l-8.775-5.068c0.852-1.45,2.014-2.733,3.309-3.475L315.416,14.949
			c2.589-1.494,6.639-1.571,9.074-0.166C326.703,16.055,328.528,19.143,328.827,21.942z"/>
	</g>
</g>
<g id="Window">
	<g id="Window_4_">
		<path id="XMLID_4022_" style="fill:#F0F0F0;" d="M98.401,390.079c-0.032,0.011-0.592,0.432-1.831,0.555
			c-0.959,0.095-1.959-0.05-2.68-0.47c-1.216-0.7-2.185-2.465-2.185-3.95L91.694,204.61l4.381,2.53v181.593
			c0,1.055,0.53,1.665,1.294,1.665C97.477,390.397,97.894,390.364,98.401,390.079z"/>
		<g id="XMLID_3734_">
			<g id="XMLID_3746_">
				<path style="fill:#FAFAFA;" d="M97.365,389.859c-0.679,0-0.752-0.788-0.752-1.126V192.294l6.147-3.547
					c0.75-0.436,1.359-2.374,2.569-6.692c0.638-2.276,1.601-5.715,2.101-6.102l55.513-32.052c0.475,0.248,1.518,2.083,2.149,3.196
					c1.357,2.388,2.17,3.74,3.089,3.74c0.158,0,0.307-0.04,0.443-0.119l170.663-98.549v195.817c0,1.295-0.941,2.931-2.057,3.572
					L98.132,389.613C97.854,389.774,97.59,389.859,97.365,389.859z"/>
				<path style="fill:#E0E0E0;" d="M338.749,53.101v13.291v181.593c0,1.107-0.835,2.558-1.789,3.106L97.861,389.148
					c-0.268,0.156-0.436,0.172-0.496,0.172c-0.211,0-0.213-0.564-0.213-0.588V192.605l5.879-3.393
					c0.93-0.539,1.511-2.351,2.817-7.012c0.582-2.077,1.455-5.193,1.926-5.823l55.097-31.812c0.475,0.549,1.257,1.925,1.754,2.798
					c1.498,2.637,2.337,4.012,3.557,4.012c0.25,0,0.497-0.066,0.712-0.191L338.749,53.101 M163.285,144.326h0.005H163.285
					 M339.825,51.237l-171.471,99.015c-0.055,0.032-0.113,0.047-0.173,0.047c-1.303,0-3.947-6.953-5.259-6.953
					c-0.061,0-0.12,0.015-0.175,0.047l-55.597,32.101c-1.292,0.743-3.38,12.045-4.661,12.787l-6.415,3.703v196.749
					c0,1.054,0.526,1.665,1.29,1.665c0.312,0,0.664-0.102,1.036-0.318l239.098-138.055c1.292-0.743,2.327-2.553,2.327-4.039V66.392
					V51.237L339.825,51.237z"/>
			</g>
		</g>
		<g>
			<path id="XMLID_3732_" style="fill:#27DEBF;" d="M93.886,199.155c-1.207-0.697-2.186-2.467-2.186-3.953l-0.003-18.192
				c0-1.486,1.046-3.293,2.333-4.036L333.125,34.917c1.287-0.743,3.309-0.78,4.517-0.083c1.207,0.697,2.186,2.467,2.181,3.952
				l0.002,18.194c0.005,1.487-1.039,3.292-2.327,4.035L98.401,199.07C97.114,199.813,95.093,199.852,93.886,199.155z"/>
			<path id="XMLID_3541_" style="opacity:0.4;fill:#FFFFFF;" d="M339.802,38.406c-0.161-1.206-1.141-1.647-2.303-0.969L98.4,175.494
				c-0.635,0.377-1.216,1.012-1.647,1.744l-4.37-2.529c0.431-0.732,1.001-1.358,1.647-1.735L333.128,34.919
				c1.281-0.743,3.305-0.786,4.51-0.086C338.747,35.479,339.662,37.007,339.802,38.406z"/>
			<path id="XMLID_3232_" style="opacity:0.1;" d="M96.753,177.237c-0.42,0.721-0.678,1.55-0.678,2.293v27.609l-4.381-2.53
				l0.002-27.6c0-0.097,0.004-0.184,0.012-0.281c0.018-0.218,0.047-0.384,0.09-0.578c0.118-0.484,0.318-0.999,0.585-1.442
				L96.753,177.237z"/>
			<path id="XMLID_2782_" style="fill:#27DEBF;" d="M339.824,38.783l0.002,12.454l-171.471,99.015
				c-1.281,0.743-2.325,0.14-2.325-1.345v-4.715c0-1.485-1.044-2.088-2.336-1.346l-56.542,32.647
				c-1.292,0.743-2.336,2.551-2.336,4.036v4.715c0,1.485-1.044,3.294-2.325,4.036l-6.415,3.703V179.53
				c0-1.485,1.044-3.294,2.325-4.036L337.499,37.438C338.779,36.695,339.824,37.298,339.824,38.783z"/>
			<g id="XMLID_2563_">
				<path id="XMLID_2776_" style="fill:#FFFFFF;" d="M328.897,46.593c1.62-0.935,2.932-0.177,2.932,1.693s-1.313,4.144-2.932,5.079
					c-1.62,0.935-2.932,0.177-2.932-1.693S327.278,47.528,328.897,46.593z"/>
				<path id="XMLID_2637_" style="fill:#FFFFFF;" d="M318.34,52.68c1.62-0.935,2.932-0.177,2.932,1.693
					c0,1.87-1.313,4.144-2.932,5.079c-1.62,0.935-2.932,0.177-2.932-1.693C315.407,55.889,316.72,53.615,318.34,52.68z"/>
				<path id="XMLID_2634_" style="fill:#FFFFFF;" d="M307.782,58.767c1.62-0.935,2.932-0.177,2.932,1.693
					c0,1.87-1.313,4.144-2.932,5.079c-1.62,0.935-2.933,0.177-2.933-1.693S306.162,59.702,307.782,58.767z"/>
			</g>
		</g>
		<g>
			<g>
				<path id="XMLID_2442_" style="fill:#E6E6E6;" d="M339.825,51.237v15.156L96.075,207.139v-15.156l4.791-2.775
					c1.281-0.743,1.711-1.872,2.325-4.036l1.624-5.643c0.512-1.959,1.044-3.294,2.336-4.036l55.597-32.101
					c1.292-0.743,2.299-0.824,3.282,0.799l1.993,3.617c0.731,1.263,1.097,2.006,2.378,1.264L339.825,51.237z"/>
				<polygon id="XMLID_2431_" style="fill:#E0E0E0;" points="96.075,191.984 96.075,207.139 91.694,204.61 91.694,189.465 				"/>
			</g>
			<g>
				<path id="XMLID_2429_" style="opacity:0.5;fill:#455A64;" d="M106.765,193.077l-3.658,2.112l1.395-2.683
					c0.122-0.235,0.135-0.529,0.027-0.655c-0.107-0.128-0.293-0.037-0.415,0.197l-1.985,3.818c-0.002,0.005-0.003,0.01-0.005,0.015
					c-0.022,0.044-0.038,0.092-0.053,0.141c-0.005,0.016-0.012,0.031-0.016,0.046c-0.016,0.065-0.026,0.132-0.026,0.197
					c0,0.065,0.01,0.121,0.026,0.167c0.004,0.011,0.011,0.018,0.016,0.028c0.015,0.032,0.031,0.061,0.053,0.08
					c0.002,0.002,0.003,0.006,0.005,0.008l1.985,1.526c0.056,0.043,0.125,0.04,0.194,0c0.082-0.047,0.163-0.146,0.221-0.283
					c0.108-0.25,0.095-0.529-0.027-0.623l-1.395-1.072l3.658-2.112c0.163-0.094,0.294-0.372,0.294-0.623
					C107.06,193.109,106.928,192.983,106.765,193.077z"/>
				<path id="XMLID_2401_" style="opacity:0.5;fill:#455A64;" d="M109.821,191.312l3.658-2.112l-1.395-1.072
					c-0.122-0.094-0.135-0.373-0.028-0.624c0.107-0.251,0.293-0.376,0.415-0.283l1.985,1.526c0.002,0.002,0.003,0.006,0.006,0.008
					c0.022,0.019,0.038,0.048,0.053,0.08c0.005,0.01,0.012,0.016,0.016,0.028c0.016,0.047,0.026,0.102,0.026,0.167
					s-0.01,0.132-0.026,0.197c-0.004,0.016-0.011,0.031-0.016,0.046c-0.015,0.049-0.031,0.097-0.053,0.141
					c-0.002,0.005-0.003,0.01-0.006,0.014l-1.985,3.818c-0.056,0.107-0.125,0.184-0.194,0.224c-0.082,0.047-0.163,0.042-0.221-0.027
					c-0.108-0.126-0.095-0.42,0.028-0.655l1.395-2.683l-3.658,2.112c-0.163,0.094-0.294-0.033-0.294-0.283
					C109.527,191.685,109.659,191.406,109.821,191.312z"/>
				<path id="XMLID_2202_" style="opacity:0.5;fill:#455A64;" d="M121.823,180.777c-0.023-0.221-0.215-0.192-0.312,0.047
					l-0.501,1.225c-0.854-0.093-1.89,0.742-2.589,2.222c-0.906,1.918-0.906,4.188,0,5.06c0.453,0.436,1.048,0.441,1.643,0.097
					c0.595-0.344,1.19-1.036,1.643-1.995c0.115-0.243,0.115-0.53,0-0.641c-0.115-0.111-0.301-0.003-0.416,0.24
					c-0.676,1.43-1.777,2.068-2.454,1.417c-0.677-0.651-0.677-2.346,0-3.779c0.481-1.019,1.174-1.622,1.778-1.659l-0.378,0.924
					c-0.098,0.24-0.008,0.463,0.146,0.363l1.492-0.974c0.105-0.068,0.182-0.258,0.167-0.409L121.823,180.777z"/>
				<path id="XMLID_2201_" style="opacity:0.5;fill:#455A64;" d="M161.144,150.311l1.333-2.823c0.158-0.334,0.158-0.727,0-0.879
					c-0.158-0.152-0.413-0.004-0.571,0.33l-1.333,2.823l-1.334-1.283c-0.158-0.152-0.413-0.004-0.571,0.33s-0.158,0.727,0,0.879
					l1.334,1.283l-1.334,2.823c-0.158,0.334-0.158,0.727,0,0.879c0.079,0.076,0.182,0.077,0.285,0.017
					c0.103-0.06,0.207-0.18,0.285-0.347l1.334-2.823l1.333,1.284c0.079,0.076,0.182,0.077,0.285,0.017s0.207-0.18,0.285-0.347
					c0.158-0.334,0.158-0.727,0-0.879L161.144,150.311z"/>
				<path id="XMLID_2200_" style="fill:#FAFAFA;" d="M126.677,184.248v-4.716c0-1.486,1.043-3.293,2.331-4.036L324.381,62.737
					c1.287-0.743,2.33-0.141,2.33,1.345l0,4.715c0,1.486-1.044,3.293-2.331,4.036L129.008,185.593
					C127.721,186.336,126.677,185.734,126.677,184.248z"/>
				<path id="XMLID_2174_" style="fill:none;stroke:#E0E0E0;stroke-width:0.8073;stroke-miterlimit:10;" d="M323.022,65.229
					l0.612,1.3c0.038,0.082,0.113,0.111,0.2,0.078l1.369-0.525c0.217-0.083,0.304,0.223,0.147,0.518l-0.99,1.859
					c-0.063,0.117-0.091,0.251-0.076,0.357l0.234,1.683c0.037,0.267-0.19,0.619-0.385,0.594l-1.224-0.151
					c-0.077-0.009-0.169,0.044-0.247,0.142l-1.224,1.565c-0.194,0.249-0.422,0.16-0.385-0.15l0.234-1.952
					c0.015-0.123-0.014-0.224-0.076-0.269l-0.99-0.715c-0.157-0.114-0.071-0.52,0.147-0.688l1.368-1.055
					c0.086-0.066,0.161-0.182,0.2-0.309l0.612-2.007C322.644,65.185,322.925,65.023,323.022,65.229z"/>
				<g id="XMLID_2088_" style="opacity:0.5;">
					<g id="XMLID_2165_">
						<path id="XMLID_2166_" style="fill:#455A64;" d="M329.459,62.162c-0.279,0-0.551-0.145-0.7-0.404
							c-0.223-0.386-0.09-0.88,0.295-1.103l6.558-3.787c0.388-0.223,0.88-0.09,1.103,0.295c0.223,0.386,0.09,0.88-0.295,1.103
							l-6.558,3.787C329.735,62.127,329.596,62.162,329.459,62.162z"/>
					</g>
					<g id="XMLID_2141_">
						<path id="XMLID_2142_" style="fill:#455A64;" d="M329.459,65.95c-0.279,0-0.551-0.145-0.7-0.404
							c-0.223-0.386-0.09-0.88,0.295-1.103l6.558-3.787c0.388-0.225,0.88-0.09,1.103,0.295c0.223,0.386,0.09,0.88-0.295,1.103
							l-6.558,3.787C329.735,65.915,329.596,65.95,329.459,65.95z"/>
					</g>
					<g id="XMLID_2089_">
						<path id="XMLID_2090_" style="fill:#455A64;" d="M329.459,69.738c-0.279,0-0.551-0.145-0.7-0.404
							c-0.223-0.386-0.09-0.88,0.295-1.103l6.558-3.787c0.388-0.225,0.88-0.09,1.103,0.295c0.223,0.386,0.09,0.88-0.295,1.103
							l-6.558,3.787C329.735,69.703,329.596,69.738,329.459,69.738z"/>
					</g>
				</g>
			</g>
		</g>
		<g id="Search">
			<g id="XMLID_2041_" style="opacity:0.5;">
				<g id="XMLID_2086_">
					<path id="XMLID_2087_" style="fill:#455A64;" d="M103.267,211.383c-0.279,0-0.551-0.145-0.7-0.404
						c-0.223-0.386-0.09-0.88,0.295-1.103l6.558-3.787c0.388-0.223,0.88-0.09,1.103,0.295c0.223,0.386,0.09,0.88-0.296,1.103
						l-6.558,3.787C103.543,211.348,103.404,211.383,103.267,211.383z"/>
				</g>
				<g id="XMLID_2077_">
					<path id="XMLID_2081_" style="fill:#455A64;" d="M103.267,215.171c-0.279,0-0.551-0.145-0.7-0.404
						c-0.223-0.386-0.09-0.88,0.295-1.103l6.558-3.787c0.388-0.225,0.88-0.09,1.103,0.295c0.223,0.386,0.09,0.88-0.296,1.103
						l-6.558,3.787C103.543,215.136,103.404,215.171,103.267,215.171z"/>
				</g>
				<g id="XMLID_2043_">
					<path id="XMLID_2044_" style="fill:#455A64;" d="M103.267,218.959c-0.279,0-0.551-0.145-0.7-0.404
						c-0.223-0.386-0.09-0.88,0.295-1.103l6.558-3.787c0.388-0.225,0.88-0.09,1.103,0.295c0.223,0.386,0.09,0.88-0.296,1.103
						l-6.558,3.787C103.543,218.924,103.404,218.959,103.267,218.959z"/>
				</g>
			</g>
			<g id="XMLID_1912_">
				<g id="XMLID_1914_">
					<path id="XMLID_2038_" style="fill:#E6E6E6;" d="M161.447,177.988l0.001,5.81c0,1.188,0.842,1.673,1.87,1.08l77.926-45.056
						l-0.001-10.129l-77.927,45.056C162.289,175.343,161.447,176.801,161.447,177.988z"/>
					<path id="XMLID_1979_" style="fill:#27DEBF;" d="M251.071,124.02c1.033-0.596,1.87-0.113,1.87,1.08v5.811
						c0,1.193-0.837,2.643-1.87,3.239l-9.826,5.673l-0.001-10.129L251.071,124.02z"/>
					<path id="XMLID_1915_" style="fill:#FAFAFA;" d="M250.344,131.986l-1.096-0.342c0.113-0.465,0.176-0.943,0.176-1.412
						c0-1.121-0.364-1.974-0.999-2.341c-0.472-0.272-1.04-0.245-1.598,0.078c-1.228,0.709-2.19,2.711-2.19,4.558
						c0,1.121,0.364,1.974,0.999,2.341c0.215,0.124,0.45,0.186,0.695,0.186c0.292,0,0.599-0.088,0.902-0.263
						c0.738-0.426,1.376-1.323,1.77-2.37l1.098,0.342c0.041,0.013,0.081,0.018,0.121,0.018c0.174,0,0.334-0.111,0.388-0.286
						C250.678,132.281,250.559,132.053,250.344,131.986z M246.827,134.087c-0.304,0.176-0.568,0.203-0.784,0.077
						c-0.366-0.211-0.593-0.838-0.593-1.636c0-1.531,0.816-3.295,1.783-3.854c0.179-0.102,0.343-0.155,0.492-0.155
						c0.105,0,0.203,0.026,0.292,0.078c0.365,0.211,0.592,0.838,0.592,1.637C248.611,131.763,247.794,133.528,246.827,134.087z"/>
				</g>
			</g>
			<path style="fill:#27DEBF;" d="M129.061,194.529l-11.255,6.507c-1.029,0.594-1.863,2.039-1.863,3.227v5.788
				c0,1.188,0.834,1.67,1.863,1.076l11.254-6.507c1.029-0.594,1.863-2.039,1.863-3.227l0.001-5.789
				C130.924,194.416,130.09,193.934,129.061,194.529z"/>
			<g id="XMLID_1845_">
				<path id="XMLID_1910_" style="fill:#27DEBF;" d="M324.713,81.559c-2.421,1.399-4.385,4.799-4.385,7.596
					c0,2.797,1.964,3.93,4.385,2.532c2.421-1.398,4.387-4.799,4.385-7.596C329.096,81.295,327.132,80.161,324.713,81.559z"/>
				<g id="XMLID_1874_">
					<g id="XMLID_1906_">
						<path id="XMLID_1907_" style="fill:#FFFFFF;" d="M324.201,86.019c-0.14,0-0.271-0.034-0.389-0.102
							c-0.273-0.157-0.422-0.469-0.422-0.877c0-0.747,0.507-1.626,1.155-2V83.04c0.352-0.204,0.696-0.23,0.971-0.072
							c0.272,0.158,0.423,0.469,0.423,0.877c0,0.747-0.507,1.626-1.154,2C324.582,85.961,324.384,86.019,324.201,86.019z"/>
					</g>
					<g id="XMLID_1877_">
						<path id="XMLID_1878_" style="fill:#FFFFFF;" d="M326.445,86.311c-0.431-0.249-0.978-0.207-1.544,0.119l-0.637,0.366
							c-1.106,0.64-1.973,2.142-1.973,3.419v0.451c0.625,0.347,1.477,0.288,2.421-0.256c0.942-0.542,1.797-1.47,2.421-2.536v-0.109
							C327.134,87.092,326.885,86.564,326.445,86.311z"/>
					</g>
				</g>
			</g>
			<g id="XMLID_1812_">
				<path id="XMLID_1844_" style="fill:#27DEBF;" d="M309.205,95.123v-1.548c0-1.766-1.074-2.578-2.399-1.813l0,0
					c-1.325,0.765-2.399,2.817-2.399,4.583v1.384c0,0.87-0.302,1.859-0.807,2.702c-0.001,0.002-0.002,0.004-0.003,0.006
					c-0.121,0.217-0.196,0.472-0.196,0.708l0,0c0,0.445,0.271,0.649,0.604,0.457l5.603-3.235c0.334-0.193,0.604-0.71,0.604-1.155
					l0,0c0-0.223-0.068-0.385-0.177-0.468c-0.003-0.002-0.006-0.004-0.009-0.005C309.53,96.515,309.205,95.957,309.205,95.123z"/>
				<path id="XMLID_1843_" style="fill:#27DEBF;" d="M307.957,99.797c0,0.848-0.516,1.833-1.152,2.2
					c-0.636,0.367-1.152-0.023-1.152-0.871L307.957,99.797z"/>
			</g>
			<g>
				<path style="fill:#27DEBF;" d="M288.52,102.485c0.344-0.199,0.668-0.313,0.972-0.341c0.306-0.029,0.57,0.022,0.794,0.152
					c0.224,0.131,0.4,0.336,0.528,0.617c0.13,0.281,0.194,0.633,0.194,1.059c0,0.34-0.036,0.66-0.11,0.958
					c-0.074,0.298-0.168,0.584-0.28,0.857c-0.114,0.274-0.238,0.533-0.374,0.776c-0.134,0.244-0.266,0.482-0.392,0.717
					c-0.126,0.234-0.24,0.467-0.34,0.701c-0.102,0.233-0.172,0.465-0.208,0.694c-0.018,0.115-0.048,0.222-0.088,0.321
					c-0.04,0.099-0.094,0.167-0.16,0.206l-1.124,0.649c-0.07,0.039-0.128,0.036-0.176-0.012c-0.05-0.048-0.074-0.123-0.074-0.228
					c0-0.312,0.042-0.615,0.124-0.909c0.084-0.294,0.186-0.577,0.308-0.852c0.124-0.274,0.258-0.539,0.402-0.792
					c0.144-0.255,0.278-0.495,0.4-0.722c0.124-0.227,0.226-0.445,0.31-0.654c0.082-0.209,0.124-0.408,0.124-0.597
					c0-0.274-0.068-0.451-0.204-0.529c-0.134-0.078-0.342-0.035-0.626,0.128c-0.276,0.16-0.474,0.338-0.594,0.536
					c-0.12,0.196-0.208,0.387-0.262,0.57c-0.056,0.184-0.104,0.351-0.144,0.502c-0.04,0.151-0.118,0.26-0.234,0.327l-1.126,0.65
					c-0.054,0.032-0.102,0.031-0.142-0.003c-0.04-0.034-0.06-0.097-0.06-0.193c0.006-0.335,0.068-0.717,0.184-1.15
					c0.118-0.432,0.284-0.864,0.502-1.297c0.22-0.433,0.486-0.841,0.798-1.22C287.756,103.026,288.114,102.719,288.52,102.485z
					 M289.323,111.716c0,0.104-0.024,0.209-0.074,0.312c-0.048,0.104-0.108,0.176-0.174,0.215l-1.162,0.671
					c-0.068,0.039-0.126,0.035-0.174-0.013c-0.05-0.047-0.074-0.122-0.074-0.226v-1.434c0-0.104,0.024-0.208,0.074-0.313
					c0.048-0.104,0.106-0.175,0.174-0.214l1.162-0.671c0.066-0.039,0.126-0.035,0.174,0.012c0.05,0.047,0.074,0.123,0.074,0.227
					V111.716z"/>
			</g>
		</g>
	</g>
</g>
<g id="_x34_04_2_">
	<g id="_x34_04_3_">
		<g id="Shadow_1_">
			<path style="fill:#E0E0E0;" d="M161.557,282.627c-0.92,0-1.771-0.352-2.461-1.02c-0.898-0.863-1.357-2.089-1.357-3.636v-7.4
				l-19.78,11.421c-0.631,0.364-1.286,0.55-1.946,0.55c-0.918,0-1.768-0.352-2.457-1.016c-0.902-0.865-1.362-2.092-1.362-3.641
				v-12.189c0-2.293,0.383-4.448,1.139-6.406l22.343-56.273c0.545-1.34,1.057-2.308,1.572-2.979
				c0.579-0.747,1.337-1.393,2.262-1.928l11.281-6.514c0.634-0.364,1.287-0.548,1.946-0.548c0.916,0,1.765,0.349,2.453,1.01
				c0.91,0.881,1.367,2.104,1.367,3.645v39.83l2.674-1.544c0.629-0.364,1.284-0.549,1.946-0.549c0.913,0,1.76,0.347,2.449,1.004
				c0.916,0.892,1.371,2.114,1.371,3.651v12.189c0,1.212-0.281,2.422-0.836,3.597c-0.617,1.308-1.435,2.262-2.429,2.837
				l-5.176,2.988v10.285c0,1.21-0.281,2.42-0.835,3.597c-0.622,1.314-1.44,2.269-2.436,2.84l-9.78,5.648
				C162.873,282.442,162.218,282.627,161.557,282.627z M154.684,248.16l3.427-1.979v-6.648L154.684,248.16z"/>
			<path style="fill:#E0E0E0;" d="M203.288,257.627c-0.202,0-0.4-0.005-0.598-0.015c-3.327-0.164-6.138-1.402-8.354-3.68
				c-2.064-2.119-3.607-5.069-4.583-8.768c-0.914-3.445-1.458-7.337-1.614-11.563c-0.1-3.09-0.15-6.493-0.15-10.126
				s0.051-7.169,0.149-10.512c0.155-4.365,0.688-8.805,1.582-13.211c0.901-4.456,2.293-8.755,4.136-12.775
				c1.851-4.038,4.217-7.806,7.033-11.2c2.869-3.454,6.338-6.369,10.31-8.662c3.938-2.274,7.345-3.38,10.412-3.38
				c0.202,0,0.4,0.005,0.598,0.015c3.331,0.17,6.14,1.407,8.352,3.679c2.066,2.127,3.607,5.076,4.584,8.767
				c0.914,3.456,1.457,7.347,1.613,11.564c0.1,3.313,0.15,6.792,0.15,10.358c0,3.57-0.051,7.029-0.149,10.281
				c-0.155,4.357-0.686,8.797-1.581,13.208c-0.904,4.463-2.296,8.762-4.136,12.776c-1.852,4.042-4.218,7.811-7.034,11.2
				c-2.867,3.454-6.336,6.368-10.31,8.662C209.761,256.521,206.354,257.627,203.288,257.627z M215.822,189.04
				c-0.218,0-0.86,0.079-2.124,0.808c-1.21,0.699-2.227,1.565-3.019,2.571c-0.839,1.065-1.521,2.263-2.026,3.561
				c-0.532,1.367-0.938,2.876-1.208,4.479c-0.279,1.663-0.443,3.427-0.489,5.24c-0.247,6.447-0.247,12.882-0.001,19.16
				c0.046,1.77,0.195,3.321,0.444,4.646c0.249,1.327,0.617,2.024,0.883,2.375c0.245,0.326,0.455,0.409,0.715,0.438
				c0.008,0.001,0.015,0.001,0.022,0.001c0.309,0,0.951-0.093,2.179-0.802c1.21-0.698,2.225-1.564,3.02-2.573
				c0.847-1.075,1.544-2.287,2.072-3.605c0.549-1.364,0.95-2.853,1.194-4.425c0.256-1.654,0.409-3.423,0.457-5.252
				c0.196-6.558,0.196-13.006,0-19.176c-0.091-1.679-0.266-3.239-0.518-4.585c-0.202-1.068-0.512-1.922-0.894-2.463
				c-0.208-0.294-0.385-0.366-0.635-0.396L215.822,189.04z"/>
			<path style="fill:#E0E0E0;" d="M271.232,219.307c-0.92,0-1.771-0.353-2.461-1.02c-0.898-0.863-1.357-2.089-1.357-3.636v-7.4
				l-19.78,11.421c-0.631,0.364-1.286,0.55-1.946,0.55c-0.918,0-1.768-0.352-2.457-1.016c-0.902-0.865-1.362-2.092-1.362-3.641
				v-12.19c0-2.293,0.383-4.448,1.139-6.406l22.343-56.273c0.545-1.34,1.057-2.308,1.572-2.979c0.579-0.747,1.337-1.393,2.262-1.928
				l11.281-6.514c0.634-0.364,1.287-0.548,1.946-0.548c0.916,0,1.765,0.349,2.453,1.01c0.91,0.881,1.367,2.104,1.367,3.645v39.83
				l2.674-1.544c0.629-0.364,1.284-0.549,1.946-0.549c0.913,0,1.76,0.347,2.449,1.004c0.916,0.892,1.371,2.114,1.371,3.651v12.189
				c0,1.212-0.281,2.422-0.836,3.597c-0.617,1.308-1.435,2.262-2.429,2.837l-5.176,2.988v10.285c0,1.21-0.281,2.42-0.835,3.597
				c-0.622,1.314-1.44,2.269-2.436,2.84l-9.78,5.648C272.548,219.122,271.892,219.307,271.232,219.307z M264.359,184.84l3.427-1.979
				v-6.648L264.359,184.84z"/>
		</g>
		<g id="_x34_04_4_">
			<g>
				<path style="fill:#27DEBF;" d="M190.482,241.301c-0.081-0.077-0.165-0.14-0.252-0.189c-0.342-0.192-7.592-4.38-7.592-4.38
					v-35.982c0-0.842-0.199-1.455-0.597-1.84c-0.077-0.074-0.158-0.135-0.241-0.183c-0.345-0.199-8.033-4.636-8.111-4.683
					c-0.348-0.207-0.746-0.182-1.192,0.074l-11.278,6.512c-0.647,0.375-1.158,0.805-1.532,1.287
					c-0.372,0.484-0.783,1.277-1.231,2.379l-22.334,56.25c-0.647,1.678-0.971,3.512-0.971,5.506v12.189
					c0,0.844,0.197,1.457,0.597,1.84c0.081,0.078,0.166,0.142,0.253,0.191c0.342,0.192,8.029,4.635,8.112,4.684
					c0.345,0.2,0.737,0.172,1.178-0.083l15.406-8.895v2.349c0,0.844,0.198,1.457,0.597,1.84c0.078,0.075,0.158,0.137,0.242,0.185
					c0.344,0.199,8.038,4.64,8.121,4.688c0.345,0.201,0.739,0.174,1.182-0.082l9.784-5.65c0.547-0.314,1.021-0.895,1.42-1.738
					c0.397-0.844,0.597-1.685,0.597-2.531v-11.729l6.424-3.709c0.547-0.316,1.021-0.895,1.42-1.74
					c0.397-0.842,0.597-1.686,0.597-2.529v-12.189C191.079,242.299,190.88,241.688,190.482,241.301z"/>
				<g>
					<path style="opacity:0.15;" d="M167.757,206.597l-0.04,0.14c-0.35,0.49-0.73,1.24-1.14,2.25l-22.33,56.25
						c-0.29,0.74-0.51,1.51-0.66,2.31l-8.18-4.72c0.16-0.79,0.37-1.55,0.65-2.28l22.33-56.25c0.45-1.1,0.86-1.9,1.24-2.38
						c0,0,0-0.01,0.01-0.01L167.757,206.597z"/>
					<path style="opacity:0.3;" d="M144.017,284.897c-0.92-0.53-7.69-4.44-8.02-4.62c-0.08-0.05-0.17-0.12-0.25-0.2
						c-0.4-0.38-0.6-0.99-0.6-1.84v-12.18c0-1.12,0.12-2.18,0.32-3.2l8.12,4.69c-0.21,1.01-0.31,2.08-0.31,3.2v12.19
						c0,0.84,0.2,1.45,0.59,1.83C143.917,284.817,143.967,284.857,144.017,284.897z"/>
					<polygon style="opacity:0.3;" points="169.197,231.517 169.197,252.677 162.357,248.727 					"/>
					<polygon style="opacity:0.4;" points="169.197,252.677 158.287,258.967 162.357,248.727 					"/>
					<path style="opacity:0.3;" d="M169.417,284.857c0.05,0.04,0.09,0.08,0.14,0.12c-0.91-0.52-7.7-4.44-8.02-4.62
						c-0.09-0.05-0.17-0.11-0.24-0.19c-0.4-0.38-0.6-1-0.6-1.84v-2.35l8.12-4.69v11.73
						C168.817,283.857,169.017,284.477,169.417,284.857z"/>
					<path style="opacity:0.15;" d="M190.137,241.067c-0.32-0.14-0.68-0.1-1.07,0.13l-6.43,3.71v-8.17
						C182.637,236.737,189.247,240.547,190.137,241.067z"/>
					<path style="opacity:0.4;fill:#FFFFFF;" d="M181.747,198.697c-0.33-0.17-0.71-0.13-1.13,0.11l-11.27,6.51
						c-0.65,0.38-1.15,0.8-1.53,1.28l-8.12-4.69c0.37-0.48,0.88-0.9,1.52-1.28l11.28-6.51c0.45-0.26,0.84-0.28,1.19-0.07
						C173.767,194.087,180.987,198.257,181.747,198.697z"/>
				</g>
				<path style="fill:#27DEBF;" d="M170.837,284.96c-0.549,0.316-1.022,0.283-1.42-0.102c-0.398-0.383-0.597-0.996-0.597-1.84
					v-11.73l-23.53,13.586c-0.548,0.316-1.02,0.283-1.419-0.102c-0.399-0.383-0.597-0.996-0.597-1.84v-12.19
					c0-1.994,0.323-3.828,0.971-5.506l22.334-56.25c0.448-1.102,0.859-1.895,1.231-2.379c0.374-0.482,0.885-0.912,1.532-1.287
					l11.278-6.512c0.547-0.314,1.021-0.281,1.42,0.102c0.397,0.385,0.597,0.998,0.597,1.84v44.16l6.424-3.709
					c0.547-0.316,1.021-0.281,1.42,0.1c0.397,0.387,0.597,0.998,0.597,1.842v12.189c0,0.844-0.199,1.688-0.597,2.529
					c-0.399,0.846-0.873,1.424-1.42,1.74l-6.424,3.709v11.729c0,0.846-0.199,1.688-0.597,2.531c-0.399,0.844-0.873,1.424-1.42,1.738
					L170.837,284.96z M169.193,252.673v-21.158l-10.905,27.455L169.193,252.673z"/>
			</g>
			<g>
				<path style="fill:#27DEBF;" d="M242.842,192.901c-0.15-4.053-0.661-7.725-1.532-11.018c-0.871-3.291-2.192-5.844-3.958-7.662
					c-0.622-0.639-1.302-1.174-2.039-1.604c-1.356-0.793-7.396-4.266-8.137-4.698c-1.353-0.788-2.897-1.225-4.633-1.314
					c-2.689-0.133-5.902,0.877-9.637,3.033c-3.734,2.156-6.946,4.855-9.636,8.094c-2.688,3.24-4.917,6.789-6.685,10.645
					c-1.768,3.857-3.089,7.936-3.958,12.232c-0.873,4.299-1.383,8.561-1.533,12.787c-0.1,3.355-0.148,6.834-0.148,10.438
					s0.049,6.947,0.148,10.033c0.15,4.053,0.66,7.727,1.533,11.018c0.869,3.293,2.19,5.848,3.958,7.662
					c0.618,0.635,1.292,1.168,2.023,1.597c1.359,0.799,7.48,4.328,8.265,4.771c1.325,0.748,2.832,1.164,4.521,1.248
					c2.689,0.133,5.901-0.877,9.636-3.033c3.734-2.156,6.947-4.855,9.637-8.094c2.688-3.236,4.917-6.787,6.685-10.645
					c1.766-3.854,3.087-7.934,3.958-12.232c0.871-4.297,1.382-8.561,1.532-12.787c0.098-3.199,0.148-6.602,0.148-10.205
					C242.991,199.563,242.94,196.143,242.842,192.901z M213.326,233.771c-0.155-1.142-0.252-2.394-0.288-3.767
					c-0.25-6.371-0.25-12.813,0-19.32c0.049-1.943,0.224-3.809,0.522-5.592c0.3-1.783,0.748-3.439,1.345-4.975
					c0.598-1.531,1.395-2.932,2.391-4.197c0.883-1.122,1.973-2.075,3.246-2.88c0.164,1.136,0.284,2.376,0.356,3.725
					c0.198,6.25,0.198,12.689,0,19.32c-0.051,1.945-0.213,3.803-0.485,5.57c-0.274,1.768-0.723,3.426-1.345,4.973
					c-0.622,1.549-1.433,2.955-2.428,4.219C215.742,231.989,214.631,232.958,213.326,233.771z"/>
				<g>
					<path style="opacity:0.15;" d="M206.657,258.787c-1.35-0.77-6.78-3.9-8.05-4.64c-0.73-0.43-1.4-0.97-2.02-1.6
						c-1.77-1.82-3.09-4.37-3.96-7.66c-0.87-3.29-1.38-6.97-1.53-11.02c-0.1-3.09-0.15-6.43-0.15-10.03c0-3.61,0.05-7.09,0.15-10.44
						c0.15-4.23,0.66-8.49,1.53-12.79c0.61-3.03,1.45-5.94,2.52-8.75l8.11,4.7c-1.06,2.8-1.89,5.72-2.5,8.74
						c-0.88,4.3-1.39,8.56-1.54,12.79c-0.1,3.35-0.15,6.83-0.15,10.44c0,3.6,0.05,6.94,0.15,10.03c0.15,4.05,0.66,7.73,1.54,11.02
						c0.86,3.29,2.19,5.85,3.95,7.66C205.297,257.847,205.957,258.367,206.657,258.787z"/>
					<path style="opacity:0.4;fill:#FFFFFF;" d="M235.007,172.447c-1.28-0.68-2.73-1.06-4.34-1.15c-2.69-0.13-5.9,0.88-9.64,3.03
						c-3.73,2.16-6.94,4.86-9.63,8.1c-2.69,3.24-4.92,6.78-6.69,10.64c-0.27,0.58-0.52,1.17-0.77,1.77
						c-0.23,0.57-0.45,1.14-0.67,1.72h-0.01l-8.11-4.7c0.19-0.51,0.39-1.02,0.6-1.52c0.27-0.66,0.54-1.31,0.84-1.96
						c1.77-3.86,4-7.4,6.68-10.65c2.69-3.23,5.91-5.93,9.64-8.09c3.73-2.16,6.95-3.16,9.64-3.03c1.73,0.09,3.28,0.52,4.63,1.31
						C227.877,168.327,233.217,171.397,235.007,172.447z"/>
					<path style="opacity:0.3;" d="M229.027,220.777c-0.05,1.94-0.22,3.8-0.49,5.57c-0.27,1.77-0.72,3.42-1.34,4.97
						c-0.27,0.67-0.58,1.32-0.93,1.94l-8.12-4.69c0.34-0.62,0.65-1.27,0.92-1.94c0.62-1.55,1.07-3.2,1.35-4.97
						c0.27-1.77,0.43-3.63,0.48-5.57c0.2-6.63,0.2-13.07,0-19.32c-0.07-1.35-0.19-2.59-0.35-3.73c0,0,0.21-0.15,0.48-0.31
						c1.49-0.89,2.74-1.23,3.74-1.12c0.99,0.12,1.79,0.6,2.39,1.44c0.6,0.84,1.03,1.99,1.31,3.44c0.27,1.45,0.46,3.11,0.56,4.97
						C229.217,207.707,229.217,214.147,229.027,220.777z"/>
					<path style="opacity:0.4;" d="M226.267,233.257c-0.44,0.81-0.94,1.57-1.5,2.28c-1,1.27-2.24,2.33-3.74,3.19
						c-1.49,0.87-2.73,1.24-3.73,1.12c-1-0.11-1.81-0.58-2.43-1.41c-0.62-0.83-1.07-1.97-1.34-3.42c-0.08-0.4-0.14-0.82-0.2-1.25
						c1.3-0.81,2.42-1.78,3.31-2.92c0.56-0.71,1.07-1.47,1.51-2.28L226.267,233.257z"/>
				</g>
				<path style="fill:#27DEBF;" d="M221.031,174.329c3.734-2.156,6.947-3.166,9.637-3.033c2.688,0.137,4.917,1.111,6.685,2.926
					c1.766,1.818,3.087,4.371,3.958,7.662c0.871,3.293,1.382,6.965,1.532,11.018c0.098,3.242,0.148,6.662,0.148,10.266
					c0,3.604-0.051,7.006-0.148,10.205c-0.15,4.227-0.661,8.49-1.532,12.787c-0.871,4.299-2.192,8.379-3.958,12.232
					c-1.768,3.857-3.997,7.408-6.685,10.645c-2.689,3.238-5.902,5.938-9.637,8.094c-3.734,2.156-6.946,3.166-9.636,3.033
					c-2.688-0.133-4.917-1.109-6.685-2.926c-1.768-1.814-3.089-4.369-3.958-7.662c-0.873-3.291-1.383-6.965-1.533-11.018
					c-0.1-3.086-0.148-6.43-0.148-10.033s0.049-7.082,0.148-10.438c0.15-4.227,0.66-8.488,1.533-12.787
					c0.869-4.297,2.19-8.375,3.958-12.232c1.768-3.855,3.996-7.404,6.685-10.645C214.085,179.184,217.296,176.485,221.031,174.329z
					 M229.023,220.776c0.198-6.631,0.198-13.07,0-19.32c-0.1-1.857-0.287-3.514-0.56-4.967c-0.274-1.451-0.711-2.598-1.308-3.443
					c-0.598-0.842-1.396-1.322-2.391-1.438c-0.996-0.115-2.24,0.26-3.734,1.121c-1.493,0.863-2.738,1.926-3.734,3.191
					c-0.996,1.266-1.793,2.666-2.391,4.197c-0.597,1.535-1.045,3.191-1.345,4.975c-0.299,1.783-0.474,3.648-0.522,5.592
					c-0.25,6.508-0.25,12.949,0,19.32c0.049,1.889,0.212,3.557,0.485,5.01c0.272,1.451,0.721,2.594,1.345,3.42
					c0.623,0.83,1.432,1.303,2.428,1.416c0.996,0.115,2.241-0.258,3.734-1.121c1.494-0.861,2.738-1.926,3.734-3.191
					c0.995-1.264,1.806-2.67,2.428-4.219c0.622-1.547,1.07-3.205,1.345-4.973C228.81,224.579,228.972,222.721,229.023,220.776z"/>
			</g>
			<g>
				<path style="fill:#27DEBF;" d="M300.157,177.981c-0.081-0.077-0.165-0.14-0.252-0.189c-0.342-0.192-7.592-4.38-7.592-4.38
					V137.43c0-0.842-0.199-1.455-0.597-1.84c-0.078-0.074-0.158-0.135-0.241-0.183c-0.345-0.199-8.033-4.636-8.111-4.683
					c-0.348-0.207-0.746-0.182-1.192,0.074l-11.278,6.512c-0.647,0.375-1.158,0.805-1.532,1.287
					c-0.372,0.484-0.783,1.277-1.231,2.379l-22.334,56.25c-0.647,1.678-0.971,3.512-0.971,5.506v12.189
					c0,0.844,0.197,1.457,0.597,1.84c0.081,0.078,0.166,0.142,0.253,0.191c0.342,0.192,8.029,4.635,8.112,4.684
					c0.345,0.2,0.737,0.172,1.178-0.083l15.406-8.895v2.349c0,0.844,0.198,1.457,0.597,1.84c0.078,0.075,0.158,0.137,0.242,0.185
					c0.344,0.199,8.039,4.64,8.121,4.688c0.345,0.201,0.739,0.174,1.182-0.082l9.784-5.65c0.547-0.314,1.021-0.895,1.42-1.738
					c0.397-0.844,0.597-1.686,0.597-2.531V199.99l6.424-3.709c0.547-0.316,1.021-0.895,1.42-1.74
					c0.397-0.842,0.597-1.686,0.597-2.529v-12.189C300.754,178.979,300.555,178.367,300.157,177.981z"/>
				<g>
					<path style="opacity:0.15;" d="M277.432,143.276l-0.04,0.14c-0.35,0.49-0.73,1.24-1.14,2.25l-22.33,56.25
						c-0.29,0.74-0.51,1.51-0.66,2.31l-8.18-4.72c0.16-0.79,0.37-1.55,0.65-2.28l22.33-56.25c0.45-1.1,0.86-1.9,1.24-2.38
						c0,0,0-0.01,0.01-0.01L277.432,143.276z"/>
					<path style="opacity:0.3;" d="M253.692,221.576c-0.92-0.53-7.69-4.44-8.02-4.62c-0.08-0.05-0.17-0.12-0.25-0.2
						c-0.4-0.38-0.6-0.99-0.6-1.84v-12.18c0-1.12,0.12-2.18,0.32-3.2l8.12,4.69c-0.21,1.01-0.31,2.08-0.31,3.2v12.19
						c0,0.84,0.2,1.45,0.59,1.83C253.592,221.496,253.642,221.536,253.692,221.576z"/>
					<polygon style="opacity:0.3;" points="278.872,168.196 278.872,189.356 272.032,185.406 					"/>
					<polygon style="opacity:0.4;" points="278.872,189.356 267.962,195.646 272.032,185.406 					"/>
					<path style="opacity:0.3;" d="M279.092,221.536c0.05,0.04,0.09,0.08,0.14,0.12c-0.91-0.52-7.7-4.44-8.02-4.62
						c-0.09-0.05-0.17-0.11-0.24-0.19c-0.4-0.38-0.6-1-0.6-1.84v-2.35l8.12-4.69v11.73
						C278.492,220.536,278.692,221.156,279.092,221.536z"/>
					<path style="opacity:0.15;" d="M299.812,177.746c-0.32-0.14-0.68-0.1-1.07,0.13l-6.43,3.71v-8.17
						C292.312,173.416,298.922,177.226,299.812,177.746z"/>
					<path style="opacity:0.4;fill:#FFFFFF;" d="M291.422,135.376c-0.33-0.17-0.71-0.13-1.13,0.11l-11.27,6.51
						c-0.65,0.38-1.15,0.8-1.53,1.28l-8.12-4.69c0.37-0.48,0.88-0.9,1.52-1.28l11.28-6.51c0.45-0.26,0.84-0.28,1.19-0.07
						C283.442,130.766,290.662,134.936,291.422,135.376z"/>
				</g>
				<path style="fill:#27DEBF;" d="M280.512,221.639c-0.549,0.316-1.022,0.283-1.42-0.102c-0.398-0.383-0.597-0.996-0.597-1.84
					v-11.73l-23.53,13.586c-0.548,0.316-1.02,0.283-1.419-0.102c-0.399-0.383-0.597-0.996-0.597-1.84v-12.189
					c0-1.994,0.323-3.828,0.971-5.506l22.334-56.25c0.448-1.102,0.859-1.895,1.232-2.379c0.374-0.482,0.885-0.912,1.532-1.287
					l11.278-6.512c0.547-0.314,1.02-0.281,1.42,0.102c0.397,0.385,0.597,0.998,0.597,1.84v44.16l6.424-3.709
					c0.547-0.316,1.02-0.281,1.42,0.1c0.397,0.387,0.597,0.998,0.597,1.842v12.189c0,0.844-0.199,1.688-0.597,2.529
					c-0.4,0.846-0.873,1.424-1.42,1.74l-6.424,3.709v11.729c0,0.846-0.199,1.688-0.597,2.531c-0.399,0.844-0.873,1.424-1.42,1.738
					L280.512,221.639z M278.868,189.352v-21.158l-10.905,27.455L278.868,189.352z"/>
			</g>
		</g>
		<g>
			<path style="fill:#455A64;" d="M201.221,292.433c0.125-0.072,0.232-0.064,0.322,0.022c0.09,0.087,0.135,0.227,0.135,0.418v2.76
				c0,0.191-0.045,0.383-0.135,0.574c-0.091,0.19-0.197,0.321-0.322,0.392l-8.018,4.631c-0.124,0.071-0.232,0.064-0.321-0.023
				c-0.091-0.086-0.136-0.225-0.136-0.416v-16.826c0-0.191,0.045-0.382,0.136-0.574c0.09-0.19,0.197-0.321,0.321-0.393l7.884-4.553
				c0.124-0.071,0.23-0.063,0.321,0.023c0.091,0.087,0.136,0.227,0.136,0.416v2.762c0,0.191-0.045,0.382-0.136,0.572
				c-0.091,0.191-0.197,0.322-0.321,0.395l-5.211,3.008v2.814l4.839-2.794c0.124-0.071,0.23-0.064,0.321,0.023
				c0.091,0.087,0.136,0.227,0.136,0.416v2.762c0,0.191-0.045,0.382-0.136,0.572c-0.091,0.191-0.197,0.322-0.321,0.395l-4.839,2.793
				v2.918L201.221,292.433z"/>
			<path style="fill:#455A64;" d="M209.087,273.825c0.744-0.43,1.41-0.693,1.997-0.789c0.586-0.095,1.085-0.017,1.497,0.231
				c0.412,0.248,0.728,0.688,0.947,1.314c0.22,0.629,0.33,1.447,0.33,2.455c0,1.301-0.176,2.483-0.524,3.545
				c-0.35,1.061-0.846,2.004-1.489,2.826l2.098,4.988c0.034,0.084,0.051,0.17,0.051,0.256c0,0.156-0.036,0.313-0.109,0.469
				c-0.074,0.154-0.161,0.262-0.263,0.32l-2.3,1.328c-0.227,0.13-0.387,0.145-0.482,0.043c-0.097-0.1-0.173-0.213-0.229-0.336
				l-1.878-4.49l-1.557,0.898v5.574c0,0.191-0.046,0.383-0.135,0.573c-0.091,0.19-0.198,0.322-0.322,0.393l-2.216,1.279
				c-0.125,0.072-0.231,0.064-0.321-0.022c-0.091-0.087-0.136-0.227-0.136-0.418v-16.826c0-0.189,0.045-0.381,0.136-0.572
				c0.09-0.191,0.196-0.322,0.321-0.395L209.087,273.825z M207.176,282.82l1.911-1.103c0.474-0.273,0.866-0.639,1.177-1.095
				c0.31-0.457,0.465-1.051,0.465-1.779c0-0.73-0.155-1.145-0.465-1.242c-0.311-0.1-0.703-0.012-1.177,0.262l-1.911,1.104V282.82z"
				/>
			<path style="fill:#455A64;" d="M221.269,266.792c0.744-0.43,1.409-0.692,1.996-0.788c0.587-0.095,1.086-0.018,1.497,0.23
				c0.412,0.248,0.728,0.688,0.947,1.315c0.22,0.629,0.33,1.447,0.33,2.454c0,1.302-0.175,2.484-0.524,3.545
				c-0.35,1.061-0.846,2.004-1.488,2.826l2.098,4.988c0.033,0.085,0.051,0.17,0.051,0.257c0,0.156-0.037,0.312-0.11,0.468
				c-0.073,0.154-0.161,0.262-0.263,0.32l-2.3,1.328c-0.226,0.131-0.387,0.145-0.482,0.044c-0.096-0.101-0.172-0.213-0.229-0.337
				l-1.878-4.49l-1.556,0.898v5.574c0,0.191-0.046,0.383-0.136,0.574c-0.091,0.19-0.198,0.322-0.321,0.393l-2.217,1.28
				c-0.124,0.071-0.23,0.064-0.321-0.022c-0.091-0.086-0.136-0.226-0.136-0.417v-16.826c0-0.19,0.045-0.382,0.136-0.573
				c0.091-0.191,0.197-0.322,0.321-0.393L221.269,266.792z M219.358,275.788l1.911-1.103c0.474-0.274,0.866-0.639,1.176-1.096
				c0.31-0.457,0.466-1.051,0.466-1.779c0-0.73-0.156-1.144-0.466-1.242c-0.309-0.1-0.702-0.012-1.176,0.262l-1.911,1.103V275.788z"
				/>
			<path style="fill:#455A64;" d="M228.018,269.694c0.034-0.991,0.172-1.987,0.415-2.987c0.242-1,0.587-1.944,1.031-2.835
				c0.446-0.892,0.987-1.708,1.625-2.448c0.637-0.742,1.373-1.354,2.207-1.836c0.824-0.475,1.558-0.712,2.2-0.709
				c0.643,0.002,1.186,0.191,1.632,0.568c0.446,0.377,0.789,0.924,1.032,1.643c0.242,0.72,0.381,1.557,0.414,2.509
				c0.023,0.734,0.034,1.509,0.034,2.325c0,0.816-0.011,1.587-0.034,2.312c-0.033,0.992-0.172,1.986-0.414,2.987
				c-0.243,0.999-0.586,1.948-1.032,2.849c-0.445,0.9-0.989,1.717-1.632,2.453c-0.643,0.735-1.376,1.342-2.2,1.816
				c-0.834,0.482-1.57,0.725-2.207,0.728c-0.638,0.002-1.179-0.188-1.625-0.573c-0.444-0.386-0.789-0.939-1.031-1.657
				c-0.243-0.721-0.381-1.556-0.415-2.509c-0.023-0.698-0.033-1.456-0.033-2.272S227.996,270.454,228.018,269.694z M235.446,269.911
				c0.011-0.318,0.021-0.672,0.034-1.061c0.011-0.388,0.017-0.782,0.017-1.182c0-0.399-0.006-0.782-0.017-1.149
				c-0.013-0.366-0.023-0.693-0.034-0.983c-0.022-0.421-0.082-0.786-0.178-1.095c-0.097-0.31-0.232-0.548-0.406-0.717
				c-0.175-0.168-0.392-0.255-0.651-0.262c-0.259-0.006-0.564,0.092-0.914,0.293c-0.349,0.202-0.653,0.456-0.913,0.762
				c-0.26,0.307-0.477,0.644-0.651,1.014c-0.175,0.371-0.311,0.766-0.405,1.186c-0.097,0.42-0.156,0.853-0.178,1.301
				c-0.023,0.309-0.037,0.65-0.043,1.027c-0.006,0.377-0.008,0.764-0.008,1.164c0,0.398,0.002,0.789,0.008,1.166
				c0.006,0.381,0.02,0.719,0.043,1.018c0.045,0.844,0.239,1.451,0.583,1.826c0.345,0.374,0.865,0.359,1.564-0.045
				c0.7-0.403,1.219-0.989,1.558-1.758C235.192,271.647,235.389,270.814,235.446,269.911z"/>
			<path style="fill:#455A64;" d="M246.019,252.503c0.744-0.43,1.41-0.693,1.997-0.789c0.586-0.095,1.085-0.018,1.497,0.23
				c0.411,0.248,0.727,0.688,0.946,1.314c0.221,0.629,0.33,1.447,0.33,2.455c0,1.301-0.175,2.483-0.524,3.545
				c-0.349,1.06-0.846,2.004-1.488,2.826l2.098,4.988c0.033,0.084,0.051,0.17,0.051,0.256c0,0.156-0.036,0.313-0.11,0.469
				c-0.073,0.154-0.16,0.262-0.262,0.32l-2.301,1.328c-0.226,0.13-0.387,0.145-0.481,0.043c-0.097-0.1-0.173-0.213-0.229-0.336
				l-1.879-4.49l-1.556,0.898v5.574c0,0.191-0.046,0.383-0.136,0.573c-0.09,0.19-0.197,0.322-0.321,0.393l-2.217,1.279
				c-0.124,0.072-0.23,0.065-0.321-0.021c-0.091-0.087-0.135-0.227-0.135-0.418v-16.826c0-0.189,0.044-0.381,0.135-0.572
				c0.091-0.191,0.197-0.322,0.321-0.395L246.019,252.503z M244.108,261.498l1.911-1.103c0.474-0.273,0.866-0.639,1.177-1.095
				c0.31-0.457,0.465-1.051,0.465-1.779c0-0.73-0.155-1.145-0.465-1.242c-0.311-0.1-0.703-0.012-1.177,0.262l-1.911,1.104V261.498z"
				/>
		</g>
		<g>
			<path style="fill:#E0E0E0;" d="M170.714,321.235c1.045-0.603,1.858-0.693,2.438-0.27c0.578,0.424,0.868,1.367,0.868,2.832
				c0,1.463-0.29,2.749-0.868,3.855c-0.579,1.106-1.393,1.961-2.438,2.564l-2.075,1.198v4.451c0,0.147-0.034,0.293-0.104,0.439
				c-0.068,0.147-0.15,0.247-0.246,0.302l-1.05,0.606c-0.096,0.056-0.178,0.05-0.247-0.018c-0.069-0.065-0.103-0.173-0.103-0.319
				v-12.894c0-0.146,0.033-0.292,0.103-0.439c0.069-0.147,0.151-0.247,0.247-0.302L170.714,321.235z M168.638,328.918l2.01-1.16
				c0.493-0.284,0.887-0.66,1.18-1.129c0.294-0.469,0.44-1.076,0.44-1.822c0-0.744-0.146-1.176-0.44-1.292
				c-0.293-0.116-0.687-0.032-1.18,0.253l-2.01,1.16V328.918z"/>
			<path style="fill:#E0E0E0;" d="M179.477,316.175c0.138-0.079,0.241-0.083,0.311-0.01c0.069,0.072,0.13,0.208,0.182,0.404
				l3.176,10.78c0.009,0.035,0.013,0.08,0.013,0.133c0,0.146-0.034,0.293-0.103,0.438c-0.069,0.148-0.151,0.248-0.246,0.303
				l-0.934,0.539c-0.174,0.1-0.295,0.113-0.363,0.039c-0.069-0.072-0.116-0.154-0.143-0.246l-0.558-1.895l-4.097,2.365l-0.558,2.538
				c-0.026,0.122-0.073,0.259-0.143,0.411c-0.069,0.154-0.191,0.28-0.363,0.38l-0.934,0.539c-0.095,0.055-0.177,0.05-0.246-0.019
				c-0.069-0.065-0.104-0.172-0.104-0.318c0-0.053,0.004-0.102,0.014-0.147l3.176-14.448c0.052-0.256,0.112-0.461,0.182-0.613
				c0.069-0.153,0.172-0.27,0.311-0.35L179.477,316.175z M180.19,324.526l-1.426-4.865l-1.427,6.512L180.19,324.526z"/>
			<path style="fill:#E0E0E0;" d="M184.157,318.642c0.017-0.808,0.112-1.591,0.286-2.351c0.173-0.758,0.423-1.468,0.752-2.131
				c0.328-0.66,0.732-1.26,1.212-1.797c0.479-0.537,1.039-0.99,1.679-1.359c0.752-0.434,1.372-0.641,1.86-0.625
				c0.488,0.019,0.877,0.153,1.166,0.405c0.29,0.251,0.493,0.567,0.61,0.944c0.116,0.379,0.184,0.717,0.201,1.012
				c0.009,0.156-0.024,0.305-0.098,0.446c-0.073,0.142-0.158,0.241-0.253,0.296l-1.05,0.605c-0.096,0.056-0.171,0.063-0.227,0.021
				c-0.057-0.04-0.098-0.094-0.124-0.158c-0.017-0.043-0.063-0.133-0.136-0.27c-0.074-0.138-0.19-0.257-0.35-0.357
				c-0.159-0.102-0.369-0.152-0.628-0.156c-0.26-0.003-0.584,0.107-0.973,0.332c-0.648,0.373-1.166,0.942-1.556,1.706
				c-0.389,0.764-0.596,1.604-0.622,2.525c-0.018,0.517-0.026,1.064-0.026,1.642c0,0.578,0.009,1.117,0.026,1.611
				c0.026,1.09,0.233,1.772,0.622,2.046c0.39,0.274,0.908,0.226,1.556-0.149c0.319-0.184,0.614-0.408,0.882-0.669
				c0.268-0.261,0.499-0.567,0.693-0.919c0.194-0.353,0.346-0.755,0.453-1.21c0.108-0.455,0.163-0.969,0.163-1.541v-0.16
				l-1.582,0.913c-0.096,0.055-0.178,0.05-0.247-0.017c-0.069-0.066-0.103-0.173-0.103-0.319v-1.418
				c0-0.146,0.033-0.292,0.103-0.439c0.069-0.146,0.151-0.247,0.247-0.302l2.982-1.721c0.096-0.056,0.178-0.051,0.247,0.016
				c0.068,0.067,0.104,0.174,0.104,0.32v2.195c0,0.799-0.082,1.581-0.246,2.348c-0.164,0.767-0.411,1.488-0.739,2.163
				c-0.328,0.676-0.739,1.292-1.231,1.849c-0.493,0.559-1.067,1.025-1.725,1.404c-0.657,0.38-1.228,0.576-1.711,0.59
				c-0.484,0.014-0.887-0.127-1.206-0.422c-0.319-0.295-0.564-0.729-0.732-1.304c-0.168-0.575-0.262-1.257-0.279-2.044
				c-0.008-0.248-0.015-0.523-0.02-0.828c-0.004-0.303-0.006-0.614-0.006-0.934c0-0.32,0.002-0.634,0.006-0.941
				C184.142,319.184,184.149,318.9,184.157,318.642z"/>
			<path style="fill:#E0E0E0;" d="M200.025,315.787c0.095-0.055,0.177-0.048,0.246,0.019c0.069,0.066,0.104,0.173,0.104,0.319v1.416
				c0,0.147-0.035,0.294-0.104,0.44c-0.069,0.147-0.151,0.248-0.246,0.303l-5.69,3.285c-0.096,0.055-0.178,0.05-0.247-0.018
				c-0.069-0.065-0.104-0.173-0.104-0.319v-12.893c0-0.147,0.034-0.292,0.104-0.44c0.069-0.146,0.151-0.246,0.247-0.302l5.587-3.226
				c0.096-0.055,0.178-0.05,0.247,0.017c0.068,0.067,0.103,0.174,0.103,0.32v1.417c0,0.146-0.034,0.293-0.103,0.438
				c-0.069,0.147-0.151,0.247-0.247,0.303l-4.188,2.417v3.174l3.902-2.254c0.095-0.055,0.177-0.048,0.246,0.019
				c0.069,0.066,0.104,0.173,0.104,0.319v1.416c0,0.148-0.035,0.294-0.104,0.44c-0.069,0.146-0.151,0.247-0.246,0.302l-3.902,2.252
				v3.314L200.025,315.787z"/>
			<path style="fill:#E0E0E0;" d="M211.472,311.674c-0.148,0.085-0.26,0.09-0.337,0.015c-0.077-0.075-0.134-0.136-0.169-0.182
				l-3.63-6.208v8.224c0,0.146-0.034,0.294-0.104,0.438c-0.068,0.148-0.15,0.248-0.246,0.303l-1.05,0.605
				c-0.096,0.056-0.178,0.051-0.247-0.017c-0.069-0.065-0.104-0.172-0.104-0.318v-12.895c0-0.146,0.034-0.291,0.104-0.439
				c0.069-0.147,0.151-0.246,0.247-0.301l0.907-0.524c0.146-0.085,0.259-0.09,0.337-0.015c0.078,0.074,0.134,0.136,0.168,0.182
				l3.631,6.207v-8.223c0-0.147,0.034-0.292,0.104-0.44c0.069-0.146,0.151-0.246,0.246-0.301l1.05-0.608
				c0.095-0.055,0.177-0.049,0.246,0.018c0.069,0.067,0.105,0.174,0.105,0.32v12.893c0,0.147-0.035,0.294-0.105,0.44
				c-0.069,0.147-0.151,0.248-0.246,0.303L211.472,311.674z"/>
			<path style="fill:#E0E0E0;" d="M214.765,301.01c0.025-0.76,0.119-1.515,0.278-2.266c0.16-0.751,0.396-1.459,0.707-2.125
				c0.312-0.666,0.7-1.275,1.167-1.831s1.02-1.019,1.66-1.388c0.63-0.364,1.179-0.541,1.645-0.531
				c0.467,0.01,0.855,0.172,1.167,0.484c0.311,0.313,0.549,0.747,0.713,1.305c0.164,0.558,0.26,1.207,0.285,1.951
				c0.009,0.248,0.015,0.523,0.02,0.827c0.004,0.304,0.007,0.618,0.007,0.944c0,0.326-0.003,0.642-0.007,0.951
				c-0.005,0.309-0.011,0.592-0.02,0.85c-0.025,0.76-0.118,1.516-0.278,2.267c-0.161,0.752-0.396,1.46-0.707,2.125
				c-0.312,0.665-0.702,1.273-1.173,1.825c-0.472,0.551-1.023,1.009-1.652,1.373c-0.641,0.369-1.193,0.549-1.66,0.539
				c-0.467-0.01-0.855-0.168-1.167-0.475c-0.311-0.305-0.547-0.741-0.707-1.309c-0.159-0.565-0.253-1.214-0.278-1.944
				c-0.009-0.247-0.015-0.523-0.02-0.827c-0.004-0.304-0.006-0.617-0.006-0.943c0-0.326,0.002-0.645,0.006-0.953
				C214.751,301.551,214.757,301.268,214.765,301.01z M220.638,297.72c-0.034-0.938-0.236-1.563-0.603-1.878
				c-0.367-0.315-0.854-0.296-1.458,0.053c-0.607,0.35-1.092,0.894-1.459,1.632c-0.367,0.737-0.568,1.595-0.604,2.573
				c-0.017,0.516-0.025,1.082-0.025,1.701c0,0.619,0.009,1.176,0.025,1.672c0.035,0.938,0.236,1.56,0.604,1.867
				c0.367,0.308,0.852,0.287,1.459-0.063c0.604-0.35,1.091-0.891,1.458-1.621c0.366-0.73,0.568-1.586,0.603-2.564
				c0.017-0.516,0.025-1.083,0.025-1.701C220.664,298.773,220.655,298.216,220.638,297.72z"/>
			<path style="fill:#E0E0E0;" d="M230.283,286.842c0.095-0.055,0.177-0.049,0.246,0.018c0.069,0.066,0.105,0.173,0.105,0.319v1.417
				c0,0.147-0.035,0.293-0.105,0.44c-0.069,0.146-0.151,0.247-0.246,0.302l-2.333,1.347v10.938c0,0.146-0.035,0.294-0.104,0.439
				c-0.069,0.147-0.151,0.248-0.246,0.303l-1.05,0.605c-0.095,0.055-0.177,0.05-0.246-0.018c-0.069-0.065-0.104-0.172-0.104-0.318
				v-10.938l-2.333,1.347c-0.095,0.055-0.177,0.048-0.246-0.019c-0.069-0.066-0.104-0.172-0.104-0.318v-1.417
				c0-0.146,0.035-0.292,0.104-0.44c0.069-0.147,0.151-0.246,0.246-0.301L230.283,286.842z"/>
			<path style="fill:#E0E0E0;" d="M241.095,280.6c0.095-0.055,0.177-0.05,0.246,0.017c0.069,0.067,0.105,0.173,0.105,0.319v1.418
				c0,0.147-0.035,0.292-0.105,0.439c-0.069,0.146-0.151,0.247-0.246,0.302l-4.136,2.389v3.871l3.876-2.237
				c0.096-0.056,0.178-0.05,0.247,0.017c0.069,0.068,0.104,0.174,0.104,0.32v1.417c0,0.147-0.034,0.292-0.104,0.439
				c-0.069,0.146-0.151,0.248-0.247,0.303l-3.876,2.238v4.57c0,0.146-0.034,0.293-0.104,0.439c-0.068,0.147-0.15,0.247-0.246,0.302
				l-1.05,0.606c-0.096,0.056-0.178,0.05-0.247-0.018c-0.069-0.065-0.102-0.173-0.102-0.319v-12.894
				c0-0.146,0.033-0.292,0.102-0.439c0.069-0.146,0.151-0.247,0.247-0.302L241.095,280.6z"/>
			<path style="fill:#E0E0E0;" d="M242.859,284.79c0.025-0.76,0.118-1.515,0.278-2.267c0.16-0.75,0.396-1.459,0.707-2.125
				c0.311-0.664,0.7-1.275,1.166-1.83c0.467-0.556,1.02-1.019,1.66-1.389c0.63-0.363,1.179-0.541,1.645-0.529
				c0.468,0.01,0.857,0.17,1.168,0.482c0.311,0.313,0.549,0.748,0.713,1.306c0.164,0.558,0.26,1.208,0.285,1.95
				c0.008,0.248,0.015,0.523,0.018,0.828c0.005,0.303,0.007,0.618,0.007,0.944c0,0.326-0.002,0.644-0.007,0.951
				c-0.004,0.31-0.011,0.593-0.018,0.851c-0.025,0.76-0.119,1.516-0.278,2.266c-0.161,0.752-0.396,1.46-0.707,2.125
				c-0.312,0.665-0.702,1.273-1.174,1.824c-0.471,0.552-1.023,1.01-1.652,1.373c-0.64,0.37-1.193,0.55-1.66,0.54
				c-0.466-0.011-0.855-0.169-1.166-0.474c-0.312-0.307-0.547-0.742-0.707-1.309c-0.16-0.566-0.253-1.215-0.278-1.945
				c-0.01-0.248-0.016-0.523-0.02-0.828c-0.004-0.303-0.007-0.617-0.007-0.943s0.003-0.644,0.007-0.951
				C242.843,285.331,242.849,285.049,242.859,284.79z M248.732,281.5c-0.035-0.94-0.236-1.565-0.604-1.877
				c-0.367-0.314-0.854-0.297-1.458,0.053c-0.605,0.35-1.092,0.893-1.459,1.631c-0.367,0.737-0.568,1.595-0.603,2.574
				c-0.018,0.516-0.025,1.082-0.025,1.701c0,0.617,0.008,1.176,0.025,1.672c0.034,0.938,0.235,1.56,0.603,1.866
				c0.367,0.308,0.854,0.286,1.459-0.064c0.604-0.349,1.091-0.889,1.458-1.621c0.367-0.73,0.568-1.584,0.604-2.563
				c0.017-0.516,0.025-1.083,0.025-1.701C248.757,282.553,248.749,281.996,248.732,281.5z"/>
			<path style="fill:#E0E0E0;" d="M259.531,269.955c0.095-0.055,0.177-0.049,0.246,0.018c0.069,0.067,0.104,0.174,0.104,0.32v8.184
				c0,0.824-0.078,1.615-0.234,2.369c-0.155,0.756-0.389,1.463-0.7,2.121c-0.31,0.658-0.7,1.252-1.167,1.781
				c-0.467,0.529-1.006,0.971-1.62,1.324c-0.622,0.359-1.165,0.544-1.627,0.551c-0.462,0.008-0.85-0.139-1.16-0.438
				c-0.311-0.299-0.543-0.738-0.694-1.316c-0.151-0.577-0.227-1.279-0.227-2.103v-8.184c0-0.147,0.035-0.293,0.105-0.44
				c0.068-0.146,0.15-0.246,0.246-0.302l1.05-0.605c0.095-0.055,0.177-0.05,0.246,0.017c0.069,0.067,0.104,0.174,0.104,0.32v8.083
				c0,0.546,0.048,0.984,0.144,1.314c0.094,0.332,0.229,0.57,0.401,0.717c0.173,0.147,0.381,0.206,0.622,0.18
				c0.242-0.026,0.506-0.122,0.791-0.287c0.285-0.164,0.552-0.375,0.798-0.63c0.246-0.255,0.455-0.556,0.628-0.901
				c0.174-0.347,0.31-0.742,0.408-1.185c0.101-0.443,0.149-0.938,0.149-1.483v-8.083c0-0.147,0.034-0.292,0.104-0.44
				c0.069-0.147,0.151-0.246,0.246-0.301L259.531,269.955z"/>
			<path style="fill:#E0E0E0;" d="M268.048,279.01c-0.147,0.085-0.26,0.09-0.337,0.015c-0.078-0.075-0.135-0.136-0.169-0.182
				l-3.63-6.208v8.224c0,0.146-0.035,0.294-0.104,0.438c-0.068,0.147-0.15,0.248-0.246,0.303l-1.049,0.605
				c-0.096,0.056-0.178,0.051-0.247-0.018c-0.069-0.065-0.104-0.172-0.104-0.318v-12.895c0-0.146,0.034-0.291,0.104-0.439
				c0.069-0.147,0.151-0.246,0.247-0.301l0.907-0.524c0.146-0.085,0.259-0.09,0.337-0.015c0.077,0.074,0.133,0.136,0.168,0.182
				l3.631,6.207v-8.223c0-0.147,0.033-0.292,0.103-0.439c0.069-0.146,0.151-0.246,0.246-0.301l1.051-0.607
				c0.095-0.055,0.177-0.049,0.246,0.018c0.069,0.067,0.103,0.174,0.103,0.32v12.892c0,0.147-0.034,0.294-0.103,0.44
				c-0.069,0.147-0.151,0.248-0.246,0.303L268.048,279.01z"/>
			<path style="fill:#E0E0E0;" d="M275.204,260.906c0.64-0.369,1.195-0.56,1.666-0.572c0.471-0.012,0.863,0.13,1.18,0.427
				c0.314,0.297,0.558,0.735,0.726,1.317c0.169,0.582,0.271,1.281,0.305,2.1c0.035,0.965,0.035,1.949,0,2.954
				c-0.034,0.858-0.136,1.675-0.305,2.451c-0.168,0.776-0.408,1.493-0.72,2.151c-0.31,0.66-0.697,1.252-1.16,1.777
				c-0.463,0.527-1.005,0.971-1.627,1.33l-3.267,1.885c-0.095,0.056-0.177,0.051-0.246-0.018c-0.07-0.064-0.103-0.172-0.103-0.318
				v-12.895c0-0.147,0.033-0.291,0.103-0.44c0.069-0.146,0.151-0.246,0.246-0.301L275.204,260.906z M277.33,265.188
				c-0.018-0.415-0.071-0.779-0.162-1.094c-0.091-0.314-0.225-0.555-0.401-0.726c-0.178-0.17-0.4-0.255-0.668-0.253
				c-0.268,0.001-0.588,0.109-0.96,0.324l-1.736,1.003v8.981l1.802-1.041c0.354-0.204,0.661-0.457,0.92-0.76
				c0.26-0.303,0.476-0.637,0.649-1.004c0.172-0.365,0.304-0.761,0.395-1.185s0.145-0.855,0.162-1.291
				C277.365,267.138,277.365,266.152,277.33,265.188z"/>
		</g>
	</g>
</g>
<g id="Speech_Bubble">
	<g id="Speech_Bubble_7_">
		<g id="Speech_Bubble_10_">
			<g id="XMLID_1162_">
				<path id="XMLID_1172_" style="fill:#27DEBF;" d="M421.335,48.713l-50.22,28.997c-0.714,0.412-1.293,1.415-1.293,2.24v64.203
					c0,0.825,0.582,1.822,1.3,2.227l4.633,2.597c0.718,0.405,1.88,0.4,2.594-0.013l50.22-28.997c0.714-0.412,1.293-1.415,1.293-2.24
					V53.524c0-0.825-0.582-1.822-1.3-2.227l-4.633-2.597C423.21,48.294,422.049,48.3,421.335,48.713z"/>
				<path id="XMLID_1171_" style="fill:#27DEBF;" d="M377.056,148.218V84.015c0-0.825,0.579-1.827,1.293-2.24l50.22-28.997
					c0.714-0.412,1.293-0.078,1.293,0.747v64.203c0,0.825-0.579,1.828-1.293,2.24l-50.22,28.997
					C377.635,149.377,377.056,149.042,377.056,148.218z"/>
				<path id="XMLID_1170_" style="opacity:0.2;" d="M378.349,148.964c-0.688,0.399-1.946,0.413-2.596,0.015l-4.63-2.602
					c-0.717-0.4-1.302-1.398-1.302-2.222V79.949c0-0.43,0.161-0.902,0.412-1.32l7.204,4.113c-0.239,0.4-0.382,0.86-0.382,1.272v64.2
					C377.056,148.97,377.587,149.406,378.349,148.964z"/>
				<path id="XMLID_1164_" style="opacity:0.4;fill:#FFFFFF;" d="M429.845,53.29c-0.102-0.651-0.633-0.884-1.278-0.514
					l-50.215,28.999c-0.358,0.209-0.681,0.561-0.914,0.968l-7.211-4.113c0.233-0.388,0.544-0.723,0.89-0.92l50.221-28.999
					c0.711-0.412,1.87-0.418,2.592-0.012l4.63,2.596C429.211,51.665,429.755,52.519,429.845,53.29z"/>
			</g>
			<g>
				<path style="fill:#27DEBF;" d="M369.821,99.299l-10.406,10.585c-0.555,0.565-0.363,1.406,0.196,1.769
					c0.214,0.14,7.203,4.143,7.203,4.143l10.241-12.33L369.821,99.299z"/>
				<path style="opacity:0.1;" d="M369.821,99.299l-10.406,10.585c-0.555,0.565-0.363,1.406,0.196,1.769
					c0.214,0.14,7.203,4.143,7.203,4.143l10.241-12.33L369.821,99.299z"/>
				<path style="fill:#27DEBF;" d="M377.056,103.466l-10.406,10.585c-0.768,0.781-0.105,2.091,0.98,1.935l9.426-1.36
					C378.067,114.625,378.067,103.466,377.056,103.466z"/>
			</g>
		</g>
		<g id="Dead_Emoji">
			<g>
				
					<line style="fill:none;stroke:#455A64;stroke-width:2;stroke-linecap:round;stroke-miterlimit:10;" x1="387.541" y1="92.854" x2="395.004" y2="100.034"/>
				
					<line style="fill:none;stroke:#455A64;stroke-width:2;stroke-linecap:round;stroke-miterlimit:10;" x1="387.541" y1="104.343" x2="395.004" y2="88.545"/>
			</g>
			<g>
				
					<line style="fill:none;stroke:#455A64;stroke-width:2;stroke-linecap:round;stroke-miterlimit:10;" x1="411.914" y1="78.782" x2="419.376" y2="85.963"/>
				
					<line style="fill:none;stroke:#455A64;stroke-width:2;stroke-linecap:round;stroke-miterlimit:10;" x1="411.914" y1="90.271" x2="419.376" y2="74.474"/>
			</g>
			
				<line style="fill:none;stroke:#455A64;stroke-width:2;stroke-linecap:round;stroke-miterlimit:10;" x1="387.211" y1="122.241" x2="419.707" y2="103.48"/>
			<path style="fill:none;stroke:#455A64;stroke-width:2;stroke-linecap:round;stroke-miterlimit:10;" d="M407.521,110.515l0,9.072
				c0,2.761,1.819,3.95,4.062,2.655c2.244-1.295,4.062-4.584,4.062-7.345l0-9.071"/>
			
				<line style="fill:none;stroke:#455A64;stroke-width:2;stroke-linecap:round;stroke-miterlimit:10;" x1="411.583" y1="108.17" x2="411.583" y2="116.928"/>
		</g>
	</g>
</g>
<g id="Character">
	<g id="Character_1_">
		<g>
			<g>
				<g id="XMLID_28_">
					<path id="XMLID_29_" style="fill:#FFA8A7;" d="M381.288,379.604c0.049-1.529-0.402-10.001-0.875-17.802
						c-0.498-8.208-0.491-15.726-0.491-15.726l13.88,10.369c-3.018,18.438-3.315,22.506-3.358,25.521l-0.345,0.28
						c0.024,0.07,0.087,0.326,0.084,0.771c0,3.58-4.032,5.526-7.175,7.924c-1.242,0.947-4.852,3.744-8.503,5.597
						c-2.286,1.159-6.935,1.282-7.517-0.189c4.422-2.765,9.704-6.282,12.742-9.638C381.183,385.109,381.188,382.742,381.288,379.604
						z"/>
				</g>
				<g>
					<path style="fill:#263238;" d="M361.583,400.898c-0.196,0.009-0.335,1.977,0.775,2.847c1.282,1.004,4.918,2.664,9.666,1.82
						c4.747-0.844,7.269-2.319,9.105-4.009c1.836-1.69,4.408-4.073,6.546-4.652c1.986-0.537,4.123-1.55,4.736-2.201
						c0.613-0.651,0.393-3.405,0.393-3.405L361.583,400.898z"/>
					<path id="XMLID_26_" style="fill:#27DEBF;" d="M390.481,380.685c0,0,0.517,0.066,0.671,0.699
						c0.183,0.753,0.446,2.956,0.821,4.189c0.521,1.713,0.982,5.253,0.786,6.679c-0.196,1.426-3.422,2.562-5.475,3.458
						c-2.097,0.914-4.488,2.708-6.572,4.598c-2.157,1.957-6.788,4.106-9.902,4.23c-3.685,0.147-7.888-0.849-8.919-2.513
						c-1.276-2.058-0.412-3.326,4.93-6.115c1.011-0.528,4.541-2.849,5.742-3.686c3.249-2.266,6.428-5.357,7.792-9.16
						c0.16-0.445,0.326-0.936,0.731-1.178c0.311-0.185,0.697-0.179,1.057-0.146c0.916,0.084,1.818,0.312,2.666,0.668
						c0.749,0.315,1.809,0.672,1.837,1.612c0.01,0.327-0.069,0.65-0.161,0.964c-0.057,0.195-0.096,0.452,0.077,0.557
						c0.164,0.1,0.368-0.032,0.504-0.167c0.548-0.539,0.936-1.216,1.389-1.837c0.243-0.332,0.509-0.653,0.823-0.922
						c0.285-0.244,0.657-0.376,0.907-0.65C390.503,381.62,390.486,381.126,390.481,380.685z"/>
					<path id="XMLID_24_" style="opacity:0.3;" d="M390.481,380.685c0,0,0.517,0.066,0.671,0.699
						c0.183,0.753,0.446,2.956,0.821,4.189c0.521,1.713,0.982,5.253,0.786,6.679c-0.196,1.426-3.422,2.562-5.475,3.458
						c-2.097,0.914-4.488,2.708-6.572,4.598c-2.157,1.957-6.788,4.106-9.902,4.23c-3.685,0.147-7.888-0.849-8.919-2.513
						c-1.276-2.058-0.412-3.326,4.93-6.115c1.011-0.528,4.541-2.849,5.742-3.686c3.249-2.266,6.428-5.357,7.792-9.16
						c0.16-0.445,0.326-0.936,0.731-1.178c0.311-0.185,0.697-0.179,1.057-0.146c0.916,0.084,1.818,0.312,2.666,0.668
						c0.749,0.315,1.809,0.672,1.837,1.612c0.01,0.327-0.069,0.65-0.161,0.964c-0.057,0.195-0.096,0.452,0.077,0.557
						c0.164,0.1,0.368-0.032,0.504-0.167c0.548-0.539,0.936-1.216,1.389-1.837c0.243-0.332,0.509-0.653,0.823-0.922
						c0.285-0.244,0.657-0.376,0.907-0.65C390.503,381.62,390.486,381.126,390.481,380.685z"/>
					<path style="opacity:0.2;" d="M374.08,396.25c-3.332,1.519-1.853,2.084-0.896,2.175c0.957,0.091,6.516-3.518,9.872-6.441
						c3.501-3.049,5.645-6.302,6.946-7.423c0.485-0.418,1.004-0.927,1.465-1.402c-0.125-0.743-0.229-1.421-0.315-1.775
						c-0.154-0.633-0.671-0.699-0.671-0.699c0.005,0.441,0.022,0.935-0.295,1.281c-0.25,0.274-0.622,0.406-0.907,0.65
						c-0.313,0.269-0.58,0.589-0.823,0.922c-0.453,0.621-0.841,1.297-1.389,1.837C384.28,389.279,377.412,394.731,374.08,396.25z"/>
					<g>
						<g>
							<path style="fill:#EBEBEB;" d="M373.401,397.914c0.075-0.004,0.149-0.032,0.209-0.086c0.138-0.124,0.15-0.337,0.025-0.475
								c-1.014-1.129-3.852-2.552-6.337-2.16c-0.184,0.028-0.31,0.201-0.281,0.384c0.028,0.183,0.181,0.305,0.384,0.281
								c2.321-0.361,4.931,1.051,5.734,1.945C373.205,397.882,373.304,397.919,373.401,397.914z"/>
						</g>
						<g>
							<path style="fill:#EBEBEB;" d="M376.278,395.951c0.075-0.003,0.149-0.032,0.209-0.086c0.138-0.124,0.149-0.337,0.025-0.475
								c-1.013-1.128-3.849-2.549-6.337-2.159c-0.184,0.028-0.31,0.201-0.281,0.384c0.028,0.183,0.196,0.309,0.384,0.281
								c2.323-0.358,4.93,1.05,5.734,1.944C376.082,395.918,376.18,395.956,376.278,395.951z"/>
						</g>
						<g>
							<path style="fill:#EBEBEB;" d="M379.16,394.085c0.075-0.003,0.149-0.032,0.209-0.086c0.138-0.124,0.149-0.337,0.025-0.475
								c-1.014-1.129-3.852-2.554-6.337-2.159c-0.184,0.028-0.31,0.201-0.281,0.384c0.028,0.183,0.193,0.309,0.384,0.281
								c2.322-0.361,4.93,1.05,5.734,1.944C378.963,394.052,379.062,394.089,379.16,394.085z"/>
						</g>
						<g>
							<path style="fill:#EBEBEB;" d="M381.812,391.983c0.075-0.004,0.149-0.032,0.209-0.086c0.138-0.124,0.149-0.337,0.025-0.475
								c-1.013-1.129-3.861-2.551-6.337-2.159c-0.184,0.028-0.31,0.201-0.281,0.384c0.028,0.183,0.194,0.308,0.384,0.281
								c2.32-0.359,4.93,1.05,5.734,1.944C381.616,391.95,381.714,391.987,381.812,391.983z"/>
						</g>
						<g>
							<path style="fill:#EBEBEB;" d="M384.409,389.883c0.073-0.003,0.146-0.031,0.205-0.083c0.141-0.122,0.154-0.335,0.032-0.474
								c-1.396-1.602-4.427-2.557-6.911-2.166c-0.184,0.028-0.31,0.201-0.281,0.384c0.028,0.183,0.195,0.304,0.384,0.281
								c2.237-0.351,5.062,0.523,6.301,1.943C384.21,389.849,384.31,389.888,384.409,389.883z"/>
						</g>
					</g>
				</g>
			</g>
			<g>
				<g id="XMLID_22_">
					<path id="XMLID_23_" style="fill:#FFA8A7;" d="M409.289,359.541l15.179-0.332c-0.187,10.135-1.755,21.389-1.983,30.898
						c-0.043,1.79,0.097,13.908-0.564,17.593c-0.993,5.536-7.564,4.814-7.925,1.504c-0.361-3.31,0.357-17.46,0.331-18.919
						c0.035-6.098-2.862-16.381-4.402-27.321C409.851,362.426,409.361,360.065,409.289,359.541z"/>
				</g>
				<g>
					<path style="fill:#263238;" d="M411.532,411.517c-0.125,3.252,0.17,5.445,1.134,7.452c0.964,2.007,3.071,2.813,5.317,2.469
						s5.197-1.556,6.096-4.285c0.898-2.729,0.956-4.653,0.749-7.7L411.532,411.517z"/>
					<path id="XMLID_20_" style="fill:#27DEBF;" d="M422.521,388.944c0.896,0.159,0.743,4.526,0.843,8.924
						c0.107,4.714,1.312,6.776,1.441,10.645c0.148,4.421-0.27,6.349-2.055,8.84c-1.785,2.492-7.45,4.556-9.752,0.518
						c-1.877-3.292-1.636-6.718-1.016-11.058c0.641-4.486,1.128-7.638,1.274-11.075c0.14-3.285,0.221-6.475,1.041-6.763
						c0.014,0.486,0.014,1.101,0.032,1.578c0.014,0.366-0.067,2.145,0.438,2.211c0.087-0.413,0.116-0.803,0.129-1.23
						c0.011-0.372,0.081-0.772,0.349-1.03c0.27-0.26,0.673-0.314,1.046-0.351c0.906-0.09,1.815-0.161,2.727-0.155
						c0.453,0.003,0.907,0.025,1.358,0.074c0.366,0.04,0.794,0.112,1.129,0.274c0.205,0.099,0.388,0.27,0.446,0.491
						c0.043,0.163,0.015,0.335-0.001,0.503c-0.029,0.302-0.02,0.607,0.026,0.907c0.021,0.132,0.094,0.298,0.227,0.279
						c0.107-0.015,0.161-0.142,0.173-0.25c0.055-0.526,0.025-0.916,0.059-1.531c0.016-0.284,0.007-0.675,0.031-0.96
						C422.488,389.505,422.512,389.225,422.521,388.944z"/>
					<path id="XMLID_18_" style="opacity:0.3;" d="M422.521,388.944c0.896,0.159,0.743,4.526,0.843,8.924
						c0.107,4.714,1.312,6.776,1.441,10.645c0.148,4.421-0.27,6.349-2.055,8.84c-1.785,2.492-7.45,4.556-9.752,0.518
						c-1.877-3.292-1.636-6.718-1.016-11.058c0.641-4.486,1.128-7.638,1.274-11.075c0.14-3.285,0.221-6.475,1.041-6.763
						c0.014,0.486,0.014,1.101,0.032,1.578c0.014,0.366-0.067,2.145,0.438,2.211c0.087-0.413,0.116-0.803,0.129-1.23
						c0.011-0.372,0.081-0.772,0.349-1.03c0.27-0.26,0.673-0.314,1.046-0.351c0.906-0.09,1.815-0.161,2.727-0.155
						c0.453,0.003,0.907,0.025,1.358,0.074c0.366,0.04,0.794,0.112,1.129,0.274c0.205,0.099,0.388,0.27,0.446,0.491
						c0.043,0.163,0.015,0.335-0.001,0.503c-0.029,0.302-0.02,0.607,0.026,0.907c0.021,0.132,0.094,0.298,0.227,0.279
						c0.107-0.015,0.161-0.142,0.173-0.25c0.055-0.526,0.025-0.916,0.059-1.531c0.016-0.284,0.007-0.675,0.031-0.96
						C422.488,389.505,422.512,389.225,422.521,388.944z"/>
					<path style="opacity:0.2;" d="M421.647,410.352c-0.134,1.58,1.475,1.198,1.759-1.024c0.283-2.222-0.425-7.627-0.043-11.46
						c-0.1-4.398,0.054-8.766-0.843-8.924c-0.002,0.054-0.008,0.107-0.011,0.161l-0.095,2.22c-0.005,0.323-0.006,0.611-0.041,0.951
						c-0.289,3.221-0.437,9.484-0.444,12.454C421.923,407.699,421.782,408.772,421.647,410.352z"/>
					<path style="opacity:0.2;" d="M415.325,410.375c-0.147-1.579-0.295-2.65-0.325-5.62c-0.03-2.947-0.222-9.136-0.531-12.375
						c-0.169-0.56-0.13-1.562-0.141-1.827c-0.017-0.446-0.018-1.007-0.03-1.476c-0.003-0.033-0.006-0.066-0.007-0.099
						c-0.592,0.218-0.797,1.961-0.918,4.155c-0.009,1.273,0.04,2.854,0.142,4.772c0.411,3.83-0.264,9.271,0.036,11.49
						C413.85,411.615,415.471,411.954,415.325,410.375z"/>
					<g>
						<g>
							<path style="fill:#EBEBEB;" d="M414.733,410.491c0.042,0,0.084-0.009,0.125-0.024c0.034-0.014,3.475-1.373,7.028-0.048
								c0.175,0.064,0.368-0.025,0.433-0.198c0.065-0.174-0.024-0.367-0.198-0.432c-3.801-1.418-7.365-0.006-7.516,0.055
								c-0.172,0.069-0.255,0.265-0.185,0.438C414.473,410.412,414.6,410.492,414.733,410.491z"/>
						</g>
						<g>
							<path style="fill:#EBEBEB;" d="M414.31,406.993c0.038,0,0.076-0.007,0.114-0.02c0.038-0.013,3.892-1.385,7.869-0.05
								c0.176,0.056,0.366-0.036,0.426-0.213c0.059-0.176-0.036-0.367-0.212-0.426c-4.207-1.409-8.147-0.003-8.313,0.056
								c-0.175,0.064-0.264,0.257-0.201,0.432C414.042,406.909,414.172,406.994,414.31,406.993z"/>
						</g>
						<g>
							<path style="fill:#EBEBEB;" d="M422.388,403.648c0.128,0,0.25-0.074,0.306-0.198c0.075-0.17,0.001-0.37-0.168-0.446
								c-3.917-1.763-8.117-0.092-8.295-0.019c-0.173,0.069-0.255,0.265-0.185,0.438c0.071,0.172,0.27,0.251,0.438,0.185
								c0.04-0.016,4.12-1.635,7.764,0.011C422.294,403.639,422.341,403.648,422.388,403.648z"/>
						</g>
						<g>
							<path style="fill:#EBEBEB;" d="M422.453,400.558c0.126,0,0.246-0.072,0.303-0.193c0.08-0.169,0.008-0.369-0.16-0.448
								c-4.3-2.026-8.29-0.142-8.458-0.061c-0.167,0.081-0.238,0.282-0.157,0.449c0.081,0.167,0.286,0.239,0.449,0.157
								c0.037-0.019,3.876-1.821,7.877,0.063C422.355,400.548,422.405,400.558,422.453,400.558z"/>
						</g>
						<g>
							<path style="fill:#EBEBEB;" d="M422.512,397.085c0.124-0.001,0.242-0.07,0.301-0.189c0.082-0.167,0.013-0.368-0.154-0.45
								c-4.023-1.967-8.345-0.057-8.526,0.027c-0.169,0.076-0.244,0.276-0.167,0.445c0.076,0.169,0.275,0.247,0.445,0.167
								c0.042-0.019,4.217-1.862,7.952-0.035C422.411,397.074,422.461,397.085,422.512,397.085z"/>
						</g>
					</g>
				</g>
			</g>
			<g>
				<path id="XMLID_17_" style="fill:#455A64;" d="M418.099,260.968c5.409,14.807,5.508,24.027,4.65,39.565
					c-0.787,14.253-2.08,26.803-2.08,26.803c0.224,2.528,3.757,7.449,4.254,18.621c0.464,10.445-0.989,23.551-0.989,23.551
					s-7.007,2.585-12.929,0.055c0,0-6.165-26.722-7.864-39.793c-1.483-11.407-3.653-24.882-3.653-24.882l-3.867,24.879
					c0,0,0.992,6.687,0.604,11.377c-0.503,6.073-3.468,22.411-3.468,22.411s-7.349,2.643-12.344-1.753c0,0-1.521-24.481-2.25-33.745
					c-0.977-12.404-0.776-46.428,2.133-63.859L418.099,260.968z"/>
				<path id="XMLID_16_" style="fill:#263238;" d="M399.488,304.887l-2.65-20.607c0,0-9.817-1.274-14.278-5.436
					c0,0,3.363,6.107,11.589,7.263l3.621,19.248l-2.15,24.411L399.488,304.887z"/>
			</g>
		</g>
		<g>
			<g>
				<path style="fill:#37474F;" d="M402.101,229.122c0.067-0.031,0.134-0.063,0.201-0.094c12.646-5.958,17.727-19.995,17.107-33.303
					c-0.196-4.212-0.908-8.443-2.585-12.312c-1.677-3.869-4.371-7.368-7.966-9.572c-2.755-1.688-5.938-2.538-9.146-2.749
					c-2.928-0.192-6.721-0.147-9.481,0.985c-1.2,0.492-1.42,0.383-2.712,0.093c-0.983-0.221-2.002-0.287-3.005-0.182
					c-2.782,0.292-5.151,1.917-6.884,4.051c-2.334,2.872-2.614,7.161-1.805,10.641c0.373,1.606,2.62,3.966,2.524,5.492
					c-0.139,2.224-1.755,3.959-3.535,5.912c-1.711,1.877-3.757,3.368-4.614,6.197c-0.736,2.431-0.871,7.582,4.567,9.557
					c-7.915,10.473-0.105,16.147,4.212,17.655c2.72,0.949,6.141,1.455,8.998,1.089C392.779,231.969,397.676,231.182,402.101,229.122
					z"/>
			</g>
			<g>
				<path style="fill:#FFA8A7;" d="M374.754,246.898c4.652-4.79,13.07-15.634,13.07-15.634l4.759-16.486
					c0.116,0.047-2.427,0.054-3.193,0.008c-5.141,0.343-6.659,0.781-9.858,4.283c-2.54,2.78-12.232,16.019-15.602,20.47
					l-8.942-11.39c-2.142-3.243-1.795-6.867-2.907-9.513c-1.112-2.646-2.91-3.814-4.348-6.206c-1.439-2.393-1.782-3.95-2.964-2.731
					c-1.182,1.219,0.182,4.52,0.359,5.271c0.177,0.751,1.978,2.986-1.031,1.825c-3.009-1.161-7.663-6.67-8.865-7.794
					c-1.202-1.124-1.83,0.618-1.56,1.993c0.271,1.375-1.022,4.487-0.554,6.766c0.497,2.418,0.854,3.523,3.185,5.871
					c2.171,2.188,7.487,4.869,9.565,7.737c2.078,2.868,6.515,11.792,9.226,17.168c3.446,6.834,6.382,9.087,10.257,6.786
					S373.03,248.674,374.754,246.898z"/>
				<path style="fill:#F28F8F;" d="M363.931,239.54c2.175,2.085,3.093,4.676,3.247,6.002c0,0,1.004-3.298-2.476-7.02L363.931,239.54
					z"/>
			</g>
			<g>
				<path style="fill:#27DEBF;" d="M380.799,243.85c-6.324-5.2-4.242-11.981-1.932-16.548c4.619-9.131,9.423-12.721,11.427-12.687
					l12.585,0.118c6.013,0.82,10.667,0.41,12.12,0.754c3.698,0.876,3.779,3.921,3.924,7.862c0.159,4.318,0.619,3.857-0.51,10.998
					c0,0-1.709,5.535-2.386,8.003c-0.678,2.468-1.925,6.313-0.911,10.306c0.392,1.544,1.439,3.048,3.021,7.309
					c1.479,3.986,2.048,5.518,3.21,10.822c0,0-8.621,7.99-26.553,5.427c-13.203-1.887-15.795-6.236-15.795-6.236l2.468-15.386
					C381.14,249.204,381.051,247.252,380.799,243.85z"/>
				<path style="opacity:0.1;" d="M389.019,242.487c0,0,5.17,4.159,11.188,2.143c6.018-2.016,6.982-7.23,6.982-7.23
					s0.515,6.849-7.07,9.048C392.799,248.571,389.019,242.487,389.019,242.487z"/>
			</g>
			<g>
				<path style="fill:#FFA8A7;" d="M434.152,202.064c-2.685-3.343-10.009-11.689-11.348-13.359
					c-0.921-1.149-2.179-2.049-3.169-2.381c-1.113-0.374-2.201-1.151-2.933-1.869c-0.523-0.514-1.651-2.681-2.108-3.254
					c-1.535-1.928-2.796-3.064-4.814-4.479c-2.12-1.487-4.135-2.177-6.307-3.588c-1.28-0.832-2.846-1.663-1.444-3.058
					c0.438-0.436,0.993-0.761,1.601-0.875c2.969-0.557,6.175,0.378,9.896,1.352c1.738,0.455,3.35,0.939,4.714,1.473
					c0.865,0.339,1.756,0.681,2.486,1.263c0.97,0.774,1.573,1.902,2.222,2.96c1.743,2.84,5.725,4.742,8.198,6.914
					c2.902,2.549,5.765,4.683,9.072,7.491c2.977,2.528,6.656,5.825,9.005,8.945c2.037,2.706,1.425,4.321,0.609,5.523
					c-4.134,6.088-13.332,12.994-16.603,15.696c-3.495,2.887-5.942,4.682-9.062,7.473c-1.568,1.402-4.803,4.872-6.197,6.592
					c-0.409,0.504-1.131,0.699-1.701,0.389c-3.608-1.968-6.015-12.028-3.223-18.214c0.715-1.584,1.456-1.647,1.456-1.647
					C420.201,211.406,434.152,202.064,434.152,202.064"/>
				<path style="fill:#F28F8F;" d="M434.152,202.064c0,0,2.379,3.3,6.506,4.648c0,0-3.452,0.817-8.082-3.488L434.152,202.064z"/>
			</g>
			<g id="XMLID_2_">
				<g id="XMLID_4_">
					<g id="XMLID_15_">
						<path style="fill:#FFA8A7;" d="M382.734,195.553c0.052,9.926,3.229,12.435,4.831,13.168c1.602,0.733,4.724,0.358,7.756-0.09
							l-0.104,5.955c0,0-3.552,3.596-3.339,6.328c0.22,2.739,5.429,3.133,9.394,0.531c2.894-1.898,4.975-4.088,5.885-5.129
							c0.331-0.379,0.515-0.858,0.524-1.361l0.246-14.012c0,0,1.625,1.784,4.592-0.173c2.96-1.95,3.279-5.681,1.526-7.826
							c-1.249-1.523-4.489-1.686-6.087,0.62c-0.904,1.697-0.827,2.886-2.021,2.686c-1.152-0.193-1.286-1.533-1.368-2.484
							c-0.083-0.953-0.047-1.268-0.116-2.517c-2.936-0.631-5.972-4.714-6.314-7.698c-2.093,0.913-4.294,1.586-6.385,1.442
							c-3.286-0.227-4.981-0.885-6.596-3.257c-0.364,0.459-0.737,1.237-0.914,1.761c-0.532,1.577-0.808,2.571-1.018,3.896
							C382.796,190.085,382.717,192.831,382.734,195.553z"/>
					</g>
					<g id="XMLID_13_">
						<path id="XMLID_14_" style="fill:#F28F8F;" d="M395.323,208.63c3.198-0.363,9.796-2.133,10.864-4.711
							c0,0-0.369,1.625-2.36,3.272c-1.99,1.646-8.539,3.426-8.539,3.426L395.323,208.63z"/>
					</g>
					<g>
						<path style="fill:#B16668;" d="M392.103,203.282c-0.013,0.719,0.56,1.313,1.279,1.325c0.719,0.012,1.313-0.56,1.325-1.28
							c0.013-0.719-0.56-1.313-1.28-1.325C392.709,201.99,392.116,202.563,392.103,203.282z"/>
						<g id="XMLID_11_">
							<path id="XMLID_12_" style="fill:#263238;" d="M393.772,193.51c-0.054,0.786,0.517,1.463,1.273,1.512
								c0.757,0.049,1.413-0.548,1.466-1.334c0.053-0.786-0.517-1.463-1.273-1.512C394.481,192.127,393.825,192.724,393.772,193.51z
								"/>
						</g>
						<g id="XMLID_9_">
							<path id="XMLID_10_" style="fill:#263238;" d="M384.498,192.918c-0.049,0.714,0.47,1.33,1.158,1.374
								c0.756,0.049,1.279-0.427,1.333-1.212c0.049-0.714-0.47-1.33-1.157-1.374C385.143,191.661,384.546,192.204,384.498,192.918z"
								/>
						</g>
						<g id="XMLID_7_">
							<polygon id="XMLID_8_" style="fill:#F28F8F;" points="390.909,191.633 389.915,199.924 385.667,198.161 							"/>
						</g>
						<path id="XMLID_6_" style="fill:#263238;" d="M398.738,189.926l-2.472-2.349c-0.643,0.719-0.61,1.827,0.072,2.475
							C397.021,190.701,398.095,190.645,398.738,189.926z"/>
						<path id="XMLID_5_" style="fill:#263238;" d="M386.383,186.819l-2.74,2.073c0.548,0.784,1.607,0.956,2.363,0.383
							C386.762,188.704,386.931,187.604,386.383,186.819z"/>
					</g>
				</g>
			</g>
		</g>
	</g>
</g>
</svg>
